<?xml version="1.0" encoding="utf-8" standalone="no"?>
<!DOCTYPE svg PUBLIC "-//W3C//DTD SVG 1.1//EN"
  "http://www.w3.org/Graphics/SVG/1.1/DTD/svg11.dtd">
<svg xmlns:xlink="http://www.w3.org/1999/xlink" width="415.494583pt" height="332.91625pt" viewBox="0 0 415.494583 332.91625" xmlns="http://www.w3.org/2000/svg" version="1.1">
 <metadata>
  <rdf:RDF xmlns:dc="http://purl.org/dc/elements/1.1/" xmlns:cc="http://creativecommons.org/ns#" xmlns:rdf="http://www.w3.org/1999/02/22-rdf-syntax-ns#">
   <cc:Work>
    <dc:type rdf:resource="http://purl.org/dc/dcmitype/StillImage"/>
    <dc:date>2024-11-27T14:08:42.818883</dc:date>
    <dc:format>image/svg+xml</dc:format>
    <dc:creator>
     <cc:Agent>
      <dc:title>Matplotlib v3.8.4, https://matplotlib.org/</dc:title>
     </cc:Agent>
    </dc:creator>
   </cc:Work>
  </rdf:RDF>
 </metadata>
 <defs>
  <style type="text/css">*{stroke-linejoin: round; stroke-linecap: butt}</style>
 </defs>
 <g id="figure_1">
  <g id="patch_1">
   <path d="M 0 332.91625 
L 415.494583 332.91625 
L 415.494583 0 
L 0 0 
z
" style="fill: #ffffff"/>
  </g>
  <g id="axes_1">
   <g id="patch_2">
    <path d="M 20.9 295.36 
L 405.113333 295.36 
L 405.113333 7.2 
L 20.9 7.2 
z
" style="fill: #ffffff"/>
   </g>
   <g id="matplotlib.axis_1">
    <g id="xtick_1">
     <g id="line2d_1">
      <defs>
       <path id="m7abd842aec" d="M 0 0 
L 0 3.5 
" style="stroke: #000000; stroke-width: 0.8"/>
      </defs>
      <g>
       <use xlink:href="#m7abd842aec" x="20.9" y="295.36" style="stroke: #000000; stroke-width: 0.8"/>
      </g>
     </g>
     <g id="text_1">
      <!-- 0 -->
      <g transform="translate(17.71875 309.958437) scale(0.1 -0.1)">
       <defs>
        <path id="DejaVuSans-30" d="M 2034 4250 
Q 1547 4250 1301 3770 
Q 1056 3291 1056 2328 
Q 1056 1369 1301 889 
Q 1547 409 2034 409 
Q 2525 409 2770 889 
Q 3016 1369 3016 2328 
Q 3016 3291 2770 3770 
Q 2525 4250 2034 4250 
z
M 2034 4750 
Q 2819 4750 3233 4129 
Q 3647 3509 3647 2328 
Q 3647 1150 3233 529 
Q 2819 -91 2034 -91 
Q 1250 -91 836 529 
Q 422 1150 422 2328 
Q 422 3509 836 4129 
Q 1250 4750 2034 4750 
z
" transform="scale(0.015625)"/>
       </defs>
       <use xlink:href="#DejaVuSans-30"/>
      </g>
     </g>
    </g>
    <g id="xtick_2">
     <g id="line2d_2">
      <g>
       <use xlink:href="#m7abd842aec" x="116.953333" y="295.36" style="stroke: #000000; stroke-width: 0.8"/>
      </g>
     </g>
     <g id="text_2">
      <!-- 1 -->
      <g transform="translate(113.772083 309.958437) scale(0.1 -0.1)">
       <defs>
        <path id="DejaVuSans-31" d="M 794 531 
L 1825 531 
L 1825 4091 
L 703 3866 
L 703 4441 
L 1819 4666 
L 2450 4666 
L 2450 531 
L 3481 531 
L 3481 0 
L 794 0 
L 794 531 
z
" transform="scale(0.015625)"/>
       </defs>
       <use xlink:href="#DejaVuSans-31"/>
      </g>
     </g>
    </g>
    <g id="xtick_3">
     <g id="line2d_3">
      <g>
       <use xlink:href="#m7abd842aec" x="213.006667" y="295.36" style="stroke: #000000; stroke-width: 0.8"/>
      </g>
     </g>
     <g id="text_3">
      <!-- 2 -->
      <g transform="translate(209.825417 309.958437) scale(0.1 -0.1)">
       <defs>
        <path id="DejaVuSans-32" d="M 1228 531 
L 3431 531 
L 3431 0 
L 469 0 
L 469 531 
Q 828 903 1448 1529 
Q 2069 2156 2228 2338 
Q 2531 2678 2651 2914 
Q 2772 3150 2772 3378 
Q 2772 3750 2511 3984 
Q 2250 4219 1831 4219 
Q 1534 4219 1204 4116 
Q 875 4013 500 3803 
L 500 4441 
Q 881 4594 1212 4672 
Q 1544 4750 1819 4750 
Q 2544 4750 2975 4387 
Q 3406 4025 3406 3419 
Q 3406 3131 3298 2873 
Q 3191 2616 2906 2266 
Q 2828 2175 2409 1742 
Q 1991 1309 1228 531 
z
" transform="scale(0.015625)"/>
       </defs>
       <use xlink:href="#DejaVuSans-32"/>
      </g>
     </g>
    </g>
    <g id="xtick_4">
     <g id="line2d_4">
      <g>
       <use xlink:href="#m7abd842aec" x="309.06" y="295.36" style="stroke: #000000; stroke-width: 0.8"/>
      </g>
     </g>
     <g id="text_4">
      <!-- 3 -->
      <g transform="translate(305.87875 309.958437) scale(0.1 -0.1)">
       <defs>
        <path id="DejaVuSans-33" d="M 2597 2516 
Q 3050 2419 3304 2112 
Q 3559 1806 3559 1356 
Q 3559 666 3084 287 
Q 2609 -91 1734 -91 
Q 1441 -91 1130 -33 
Q 819 25 488 141 
L 488 750 
Q 750 597 1062 519 
Q 1375 441 1716 441 
Q 2309 441 2620 675 
Q 2931 909 2931 1356 
Q 2931 1769 2642 2001 
Q 2353 2234 1838 2234 
L 1294 2234 
L 1294 2753 
L 1863 2753 
Q 2328 2753 2575 2939 
Q 2822 3125 2822 3475 
Q 2822 3834 2567 4026 
Q 2313 4219 1838 4219 
Q 1578 4219 1281 4162 
Q 984 4106 628 3988 
L 628 4550 
Q 988 4650 1302 4700 
Q 1616 4750 1894 4750 
Q 2613 4750 3031 4423 
Q 3450 4097 3450 3541 
Q 3450 3153 3228 2886 
Q 3006 2619 2597 2516 
z
" transform="scale(0.015625)"/>
       </defs>
       <use xlink:href="#DejaVuSans-33"/>
      </g>
     </g>
    </g>
    <g id="xtick_5">
     <g id="line2d_5">
      <g>
       <use xlink:href="#m7abd842aec" x="405.113333" y="295.36" style="stroke: #000000; stroke-width: 0.8"/>
      </g>
     </g>
     <g id="text_5">
      <!-- 4 -->
      <g transform="translate(401.932083 309.958437) scale(0.1 -0.1)">
       <defs>
        <path id="DejaVuSans-34" d="M 2419 4116 
L 825 1625 
L 2419 1625 
L 2419 4116 
z
M 2253 4666 
L 3047 4666 
L 3047 1625 
L 3713 1625 
L 3713 1100 
L 3047 1100 
L 3047 0 
L 2419 0 
L 2419 1100 
L 313 1100 
L 313 1709 
L 2253 4666 
z
" transform="scale(0.015625)"/>
       </defs>
       <use xlink:href="#DejaVuSans-34"/>
      </g>
     </g>
    </g>
    <g id="text_6">
     <!-- $x$ in m -->
     <g transform="translate(197.406667 323.636562) scale(0.1 -0.1)">
      <defs>
       <path id="DejaVuSans-Oblique-78" d="M 3841 3500 
L 2234 1784 
L 3219 0 
L 2559 0 
L 1819 1388 
L 531 0 
L -166 0 
L 1556 1844 
L 641 3500 
L 1300 3500 
L 1972 2234 
L 3144 3500 
L 3841 3500 
z
" transform="scale(0.015625)"/>
       <path id="DejaVuSans-20" transform="scale(0.015625)"/>
       <path id="DejaVuSans-69" d="M 603 3500 
L 1178 3500 
L 1178 0 
L 603 0 
L 603 3500 
z
M 603 4863 
L 1178 4863 
L 1178 4134 
L 603 4134 
L 603 4863 
z
" transform="scale(0.015625)"/>
       <path id="DejaVuSans-6e" d="M 3513 2113 
L 3513 0 
L 2938 0 
L 2938 2094 
Q 2938 2591 2744 2837 
Q 2550 3084 2163 3084 
Q 1697 3084 1428 2787 
Q 1159 2491 1159 1978 
L 1159 0 
L 581 0 
L 581 3500 
L 1159 3500 
L 1159 2956 
Q 1366 3272 1645 3428 
Q 1925 3584 2291 3584 
Q 2894 3584 3203 3211 
Q 3513 2838 3513 2113 
z
" transform="scale(0.015625)"/>
       <path id="DejaVuSans-6d" d="M 3328 2828 
Q 3544 3216 3844 3400 
Q 4144 3584 4550 3584 
Q 5097 3584 5394 3201 
Q 5691 2819 5691 2113 
L 5691 0 
L 5113 0 
L 5113 2094 
Q 5113 2597 4934 2840 
Q 4756 3084 4391 3084 
Q 3944 3084 3684 2787 
Q 3425 2491 3425 1978 
L 3425 0 
L 2847 0 
L 2847 2094 
Q 2847 2600 2669 2842 
Q 2491 3084 2119 3084 
Q 1678 3084 1418 2786 
Q 1159 2488 1159 1978 
L 1159 0 
L 581 0 
L 581 3500 
L 1159 3500 
L 1159 2956 
Q 1356 3278 1631 3431 
Q 1906 3584 2284 3584 
Q 2666 3584 2933 3390 
Q 3200 3197 3328 2828 
z
" transform="scale(0.015625)"/>
      </defs>
      <use xlink:href="#DejaVuSans-Oblique-78" transform="translate(0 0.015625)"/>
      <use xlink:href="#DejaVuSans-20" transform="translate(59.179688 0.015625)"/>
      <use xlink:href="#DejaVuSans-69" transform="translate(90.966797 0.015625)"/>
      <use xlink:href="#DejaVuSans-6e" transform="translate(118.75 0.015625)"/>
      <use xlink:href="#DejaVuSans-20" transform="translate(182.128906 0.015625)"/>
      <use xlink:href="#DejaVuSans-6d" transform="translate(213.916016 0.015625)"/>
     </g>
    </g>
   </g>
   <g id="matplotlib.axis_2">
    <g id="text_7">
     <!-- $y$ in m -->
     <g transform="translate(14.8 166.88) rotate(-90) scale(0.1 -0.1)">
      <defs>
       <path id="DejaVuSans-Oblique-79" d="M 1588 -325 
Q 1188 -997 936 -1164 
Q 684 -1331 294 -1331 
L -159 -1331 
L -63 -850 
L 269 -850 
Q 509 -850 678 -719 
Q 847 -588 1056 -206 
L 1234 128 
L 459 3500 
L 1069 3500 
L 1650 819 
L 3256 3500 
L 3859 3500 
L 1588 -325 
z
" transform="scale(0.015625)"/>
      </defs>
      <use xlink:href="#DejaVuSans-Oblique-79" transform="translate(0 0.015625)"/>
      <use xlink:href="#DejaVuSans-20" transform="translate(59.179688 0.015625)"/>
      <use xlink:href="#DejaVuSans-69" transform="translate(90.966797 0.015625)"/>
      <use xlink:href="#DejaVuSans-6e" transform="translate(118.75 0.015625)"/>
      <use xlink:href="#DejaVuSans-20" transform="translate(182.128906 0.015625)"/>
      <use xlink:href="#DejaVuSans-6d" transform="translate(213.916016 0.015625)"/>
     </g>
    </g>
   </g>
   <g id="LineCollection_1">
    <path d="M 116.953333 295.36 
L 116.953333 199.306667 
" clip-path="url(#p2a1c69c24f)" style="fill: none; stroke: #000000; stroke-width: 0.3"/>
    <path d="M 116.953333 199.306667 
L 20.9 199.306667 
" clip-path="url(#p2a1c69c24f)" style="fill: none; stroke: #000000; stroke-width: 0.3"/>
    <path d="M 213.006667 295.36 
L 213.006667 199.306667 
" clip-path="url(#p2a1c69c24f)" style="fill: none; stroke: #000000; stroke-width: 0.3"/>
    <path d="M 213.006667 199.306667 
L 116.953333 199.306667 
" clip-path="url(#p2a1c69c24f)" style="fill: none; stroke: #000000; stroke-width: 0.3"/>
    <path d="M 309.06 295.36 
L 309.06 199.306667 
" clip-path="url(#p2a1c69c24f)" style="fill: none; stroke: #000000; stroke-width: 0.3"/>
    <path d="M 309.06 199.306667 
L 213.006667 199.306667 
" clip-path="url(#p2a1c69c24f)" style="fill: none; stroke: #000000; stroke-width: 0.3"/>
    <path d="M 405.113333 199.306667 
L 309.06 199.306667 
" clip-path="url(#p2a1c69c24f)" style="fill: none; stroke: #000000; stroke-width: 0.3"/>
    <path d="M 116.953333 199.306667 
L 116.953333 103.253333 
" clip-path="url(#p2a1c69c24f)" style="fill: none; stroke: #000000; stroke-width: 0.3"/>
    <path d="M 116.953333 103.253333 
L 20.9 103.253333 
" clip-path="url(#p2a1c69c24f)" style="fill: none; stroke: #000000; stroke-width: 0.3"/>
    <path d="M 213.006667 199.306667 
L 213.006667 103.253333 
" clip-path="url(#p2a1c69c24f)" style="fill: none; stroke: #000000; stroke-width: 0.3"/>
    <path d="M 213.006667 103.253333 
L 116.953333 103.253333 
" clip-path="url(#p2a1c69c24f)" style="fill: none; stroke: #000000; stroke-width: 0.3"/>
    <path d="M 309.06 199.306667 
L 309.06 103.253333 
" clip-path="url(#p2a1c69c24f)" style="fill: none; stroke: #000000; stroke-width: 0.3"/>
    <path d="M 309.06 103.253333 
L 213.006667 103.253333 
" clip-path="url(#p2a1c69c24f)" style="fill: none; stroke: #000000; stroke-width: 0.3"/>
    <path d="M 405.113333 103.253333 
L 309.06 103.253333 
" clip-path="url(#p2a1c69c24f)" style="fill: none; stroke: #000000; stroke-width: 0.3"/>
    <path d="M 116.953333 103.253333 
L 116.953333 7.2 
" clip-path="url(#p2a1c69c24f)" style="fill: none; stroke: #000000; stroke-width: 0.3"/>
    <path d="M 213.006667 103.253333 
L 213.006667 7.2 
" clip-path="url(#p2a1c69c24f)" style="fill: none; stroke: #000000; stroke-width: 0.3"/>
    <path d="M 309.06 103.253333 
L 309.06 7.2 
" clip-path="url(#p2a1c69c24f)" style="fill: none; stroke: #000000; stroke-width: 0.3"/>
   </g>
   <g id="LineCollection_2">
    <path d="M 20.9 295.36 
L 116.953333 295.36 
" clip-path="url(#p2a1c69c24f)" style="fill: none; stroke: #000000; stroke-width: 0.3"/>
    <path d="M 20.9 199.306667 
L 20.9 295.36 
" clip-path="url(#p2a1c69c24f)" style="fill: none; stroke: #000000; stroke-width: 0.3"/>
    <path d="M 116.953333 295.36 
L 213.006667 295.36 
" clip-path="url(#p2a1c69c24f)" style="fill: none; stroke: #000000; stroke-width: 0.3"/>
    <path d="M 213.006667 295.36 
L 309.06 295.36 
" clip-path="url(#p2a1c69c24f)" style="fill: none; stroke: #000000; stroke-width: 0.3"/>
    <path d="M 309.06 295.36 
L 405.113333 295.36 
" clip-path="url(#p2a1c69c24f)" style="fill: none; stroke: #000000; stroke-width: 0.3"/>
    <path d="M 405.113333 295.36 
L 405.113333 199.306667 
" clip-path="url(#p2a1c69c24f)" style="fill: none; stroke: #000000; stroke-width: 0.3"/>
    <path d="M 20.9 103.253333 
L 20.9 199.306667 
" clip-path="url(#p2a1c69c24f)" style="fill: none; stroke: #000000; stroke-width: 0.3"/>
    <path d="M 405.113333 199.306667 
L 405.113333 103.253333 
" clip-path="url(#p2a1c69c24f)" style="fill: none; stroke: #000000; stroke-width: 0.3"/>
    <path d="M 116.953333 7.2 
L 20.9 7.2 
" clip-path="url(#p2a1c69c24f)" style="fill: none; stroke: #000000; stroke-width: 0.3"/>
    <path d="M 20.9 7.2 
L 20.9 103.253333 
" clip-path="url(#p2a1c69c24f)" style="fill: none; stroke: #000000; stroke-width: 0.3"/>
    <path d="M 213.006667 7.2 
L 116.953333 7.2 
" clip-path="url(#p2a1c69c24f)" style="fill: none; stroke: #000000; stroke-width: 0.3"/>
    <path d="M 309.06 7.2 
L 213.006667 7.2 
" clip-path="url(#p2a1c69c24f)" style="fill: none; stroke: #000000; stroke-width: 0.3"/>
    <path d="M 405.113333 103.253333 
L 405.113333 7.2 
" clip-path="url(#p2a1c69c24f)" style="fill: none; stroke: #000000; stroke-width: 0.3"/>
    <path d="M 405.113333 7.2 
L 309.06 7.2 
" clip-path="url(#p2a1c69c24f)" style="fill: none; stroke: #000000; stroke-width: 0.3"/>
   </g>
   <g id="LineCollection_3">
    <path d="M 20.9 295.36 
L 116.953333 295.36 
" clip-path="url(#p2a1c69c24f)" style="fill: none; stroke: #000000; stroke-width: 1.4"/>
    <path d="M 20.9 199.306667 
L 20.9 295.36 
" clip-path="url(#p2a1c69c24f)" style="fill: none; stroke: #000000; stroke-width: 1.4"/>
    <path d="M 116.953333 295.36 
L 213.006667 295.36 
" clip-path="url(#p2a1c69c24f)" style="fill: none; stroke: #000000; stroke-width: 1.4"/>
    <path d="M 213.006667 295.36 
L 309.06 295.36 
" clip-path="url(#p2a1c69c24f)" style="fill: none; stroke: #000000; stroke-width: 1.4"/>
    <path d="M 309.06 295.36 
L 405.113333 295.36 
" clip-path="url(#p2a1c69c24f)" style="fill: none; stroke: #000000; stroke-width: 1.4"/>
    <path d="M 405.113333 295.36 
L 405.113333 199.306667 
" clip-path="url(#p2a1c69c24f)" style="fill: none; stroke: #000000; stroke-width: 1.4"/>
    <path d="M 20.9 103.253333 
L 20.9 199.306667 
" clip-path="url(#p2a1c69c24f)" style="fill: none; stroke: #000000; stroke-width: 1.4"/>
    <path d="M 405.113333 199.306667 
L 405.113333 103.253333 
" clip-path="url(#p2a1c69c24f)" style="fill: none; stroke: #000000; stroke-width: 1.4"/>
    <path d="M 116.953333 7.2 
L 20.9 7.2 
" clip-path="url(#p2a1c69c24f)" style="fill: none; stroke: #000000; stroke-width: 1.4"/>
    <path d="M 20.9 7.2 
L 20.9 103.253333 
" clip-path="url(#p2a1c69c24f)" style="fill: none; stroke: #000000; stroke-width: 1.4"/>
    <path d="M 213.006667 7.2 
L 116.953333 7.2 
" clip-path="url(#p2a1c69c24f)" style="fill: none; stroke: #000000; stroke-width: 1.4"/>
    <path d="M 309.06 7.2 
L 213.006667 7.2 
" clip-path="url(#p2a1c69c24f)" style="fill: none; stroke: #000000; stroke-width: 1.4"/>
    <path d="M 405.113333 103.253333 
L 405.113333 7.2 
" clip-path="url(#p2a1c69c24f)" style="fill: none; stroke: #000000; stroke-width: 1.4"/>
    <path d="M 405.113333 7.2 
L 309.06 7.2 
" clip-path="url(#p2a1c69c24f)" style="fill: none; stroke: #000000; stroke-width: 1.4"/>
   </g>
   <g id="line2d_6">
    <path d="M 116.953333 199.306667 
L 213.006667 199.306667 
L 309.06 199.306667 
" clip-path="url(#p2a1c69c24f)" style="fill: none; stroke: #0000ff; stroke-width: 4; stroke-linecap: square"/>
    <defs>
     <path id="m42ad471448" d="M 0 6 
C 1.591219 6 3.117479 5.367802 4.242641 4.242641 
C 5.367802 3.117479 6 1.591219 6 0 
C 6 -1.591219 5.367802 -3.117479 4.242641 -4.242641 
C 3.117479 -5.367802 1.591219 -6 0 -6 
C -1.591219 -6 -3.117479 -5.367802 -4.242641 -4.242641 
C -5.367802 -3.117479 -6 -1.591219 -6 0 
C -6 1.591219 -5.367802 3.117479 -4.242641 4.242641 
C -3.117479 5.367802 -1.591219 6 0 6 
z
" style="stroke: #0000ff"/>
    </defs>
    <g clip-path="url(#p2a1c69c24f)">
     <use xlink:href="#m42ad471448" x="116.953333" y="199.306667" style="fill: #0000ff; stroke: #0000ff"/>
     <use xlink:href="#m42ad471448" x="213.006667" y="199.306667" style="fill: #0000ff; stroke: #0000ff"/>
     <use xlink:href="#m42ad471448" x="309.06" y="199.306667" style="fill: #0000ff; stroke: #0000ff"/>
    </g>
   </g>
   <g id="line2d_7">
    <path d="M 213.006667 199.306667 
L 213.006667 103.253333 
" clip-path="url(#p2a1c69c24f)" style="fill: none; stroke: #008000; stroke-width: 4; stroke-linecap: square"/>
   </g>
   <g id="line2d_8">
    <defs>
     <path id="mc93c6ab634" d="M 0 6 
C 1.591219 6 3.117479 5.367802 4.242641 4.242641 
C 5.367802 3.117479 6 1.591219 6 0 
C 6 -1.591219 5.367802 -3.117479 4.242641 -4.242641 
C 3.117479 -5.367802 1.591219 -6 0 -6 
C -1.591219 -6 -3.117479 -5.367802 -4.242641 -4.242641 
C -5.367802 -3.117479 -6 -1.591219 -6 0 
C -6 1.591219 -5.367802 3.117479 -4.242641 4.242641 
C -3.117479 5.367802 -1.591219 6 0 6 
z
" style="stroke: #ff0000"/>
    </defs>
    <g clip-path="url(#p2a1c69c24f)">
     <use xlink:href="#mc93c6ab634" x="213.006667" y="103.253333" style="fill: #ff0000; stroke: #ff0000"/>
    </g>
   </g>
   <g id="patch_3">
    <path d="M 20.9 295.36 
L 20.9 7.2 
" style="fill: none; stroke: #000000; stroke-width: 0.8; stroke-linejoin: miter; stroke-linecap: square"/>
   </g>
   <g id="patch_4">
    <path d="M 405.113333 295.36 
L 405.113333 7.2 
" style="fill: none; stroke: #000000; stroke-width: 0.8; stroke-linejoin: miter; stroke-linecap: square"/>
   </g>
   <g id="patch_5">
    <path d="M 20.9 295.36 
L 405.113333 295.36 
" style="fill: none; stroke: #000000; stroke-width: 0.8; stroke-linejoin: miter; stroke-linecap: square"/>
   </g>
   <g id="patch_6">
    <path d="M 20.9 7.2 
L 405.113333 7.2 
" style="fill: none; stroke: #000000; stroke-width: 0.8; stroke-linejoin: miter; stroke-linecap: square"/>
   </g>
  </g>
 </g>
 <defs>
  <clipPath id="p2a1c69c24f">
   <rect x="20.9" y="7.2" width="384.213333" height="288.16"/>
  </clipPath>
 </defs>
</svg>
