<?xml version="1.0" encoding="utf-8" standalone="no"?>
<!DOCTYPE svg PUBLIC "-//W3C//DTD SVG 1.1//EN"
  "http://www.w3.org/Graphics/SVG/1.1/DTD/svg11.dtd">
<svg xmlns:xlink="http://www.w3.org/1999/xlink" width="451.680625pt" height="299.90125pt" viewBox="0 0 451.680625 299.90125" xmlns="http://www.w3.org/2000/svg" version="1.1">
 <metadata>
  <rdf:RDF xmlns:dc="http://purl.org/dc/elements/1.1/" xmlns:cc="http://creativecommons.org/ns#" xmlns:rdf="http://www.w3.org/1999/02/22-rdf-syntax-ns#">
   <cc:Work>
    <dc:type rdf:resource="http://purl.org/dc/dcmitype/StillImage"/>
    <dc:date>2024-11-09T07:08:06.335453</dc:date>
    <dc:format>image/svg+xml</dc:format>
    <dc:creator>
     <cc:Agent>
      <dc:title>Matplotlib v3.8.4, https://matplotlib.org/</dc:title>
     </cc:Agent>
    </dc:creator>
   </cc:Work>
  </rdf:RDF>
 </metadata>
 <defs>
  <style type="text/css">*{stroke-linejoin: round; stroke-linecap: butt}</style>
 </defs>
 <g id="figure_1">
  <g id="patch_1">
   <path d="M 0 299.90125 
L 451.680625 299.90125 
L 451.680625 0 
L 0 0 
z
" style="fill: #ffffff"/>
  </g>
  <g id="axes_1">
   <g id="patch_2">
    <path d="M 50.165625 262.345 
L 444.480625 262.345 
L 444.480625 7.2 
L 50.165625 7.2 
z
" style="fill: #ffffff"/>
   </g>
   <g id="matplotlib.axis_1">
    <g id="xtick_1">
     <g id="line2d_1">
      <defs>
       <path id="ma33381e4f1" d="M 0 0 
L 0 3.5 
" style="stroke: #000000; stroke-width: 0.8"/>
      </defs>
      <g>
       <use xlink:href="#ma33381e4f1" x="50.165625" y="262.345" style="stroke: #000000; stroke-width: 0.8"/>
      </g>
     </g>
     <g id="text_1">
      <!-- 0.0 -->
      <g transform="translate(42.214063 276.943438) scale(0.1 -0.1)">
       <defs>
        <path id="DejaVuSans-30" d="M 2034 4250 
Q 1547 4250 1301 3770 
Q 1056 3291 1056 2328 
Q 1056 1369 1301 889 
Q 1547 409 2034 409 
Q 2525 409 2770 889 
Q 3016 1369 3016 2328 
Q 3016 3291 2770 3770 
Q 2525 4250 2034 4250 
z
M 2034 4750 
Q 2819 4750 3233 4129 
Q 3647 3509 3647 2328 
Q 3647 1150 3233 529 
Q 2819 -91 2034 -91 
Q 1250 -91 836 529 
Q 422 1150 422 2328 
Q 422 3509 836 4129 
Q 1250 4750 2034 4750 
z
" transform="scale(0.015625)"/>
        <path id="DejaVuSans-2e" d="M 684 794 
L 1344 794 
L 1344 0 
L 684 0 
L 684 794 
z
" transform="scale(0.015625)"/>
       </defs>
       <use xlink:href="#DejaVuSans-30"/>
       <use xlink:href="#DejaVuSans-2e" x="63.623047"/>
       <use xlink:href="#DejaVuSans-30" x="95.410156"/>
      </g>
     </g>
    </g>
    <g id="xtick_2">
     <g id="line2d_2">
      <g>
       <use xlink:href="#ma33381e4f1" x="108.153125" y="262.345" style="stroke: #000000; stroke-width: 0.8"/>
      </g>
     </g>
     <g id="text_2">
      <!-- 0.5 -->
      <g transform="translate(100.201562 276.943438) scale(0.1 -0.1)">
       <defs>
        <path id="DejaVuSans-35" d="M 691 4666 
L 3169 4666 
L 3169 4134 
L 1269 4134 
L 1269 2991 
Q 1406 3038 1543 3061 
Q 1681 3084 1819 3084 
Q 2600 3084 3056 2656 
Q 3513 2228 3513 1497 
Q 3513 744 3044 326 
Q 2575 -91 1722 -91 
Q 1428 -91 1123 -41 
Q 819 9 494 109 
L 494 744 
Q 775 591 1075 516 
Q 1375 441 1709 441 
Q 2250 441 2565 725 
Q 2881 1009 2881 1497 
Q 2881 1984 2565 2268 
Q 2250 2553 1709 2553 
Q 1456 2553 1204 2497 
Q 953 2441 691 2322 
L 691 4666 
z
" transform="scale(0.015625)"/>
       </defs>
       <use xlink:href="#DejaVuSans-30"/>
       <use xlink:href="#DejaVuSans-2e" x="63.623047"/>
       <use xlink:href="#DejaVuSans-35" x="95.410156"/>
      </g>
     </g>
    </g>
    <g id="xtick_3">
     <g id="line2d_3">
      <g>
       <use xlink:href="#ma33381e4f1" x="166.140625" y="262.345" style="stroke: #000000; stroke-width: 0.8"/>
      </g>
     </g>
     <g id="text_3">
      <!-- 1.0 -->
      <g transform="translate(158.189063 276.943438) scale(0.1 -0.1)">
       <defs>
        <path id="DejaVuSans-31" d="M 794 531 
L 1825 531 
L 1825 4091 
L 703 3866 
L 703 4441 
L 1819 4666 
L 2450 4666 
L 2450 531 
L 3481 531 
L 3481 0 
L 794 0 
L 794 531 
z
" transform="scale(0.015625)"/>
       </defs>
       <use xlink:href="#DejaVuSans-31"/>
       <use xlink:href="#DejaVuSans-2e" x="63.623047"/>
       <use xlink:href="#DejaVuSans-30" x="95.410156"/>
      </g>
     </g>
    </g>
    <g id="xtick_4">
     <g id="line2d_4">
      <g>
       <use xlink:href="#ma33381e4f1" x="224.128125" y="262.345" style="stroke: #000000; stroke-width: 0.8"/>
      </g>
     </g>
     <g id="text_4">
      <!-- 1.5 -->
      <g transform="translate(216.176562 276.943438) scale(0.1 -0.1)">
       <use xlink:href="#DejaVuSans-31"/>
       <use xlink:href="#DejaVuSans-2e" x="63.623047"/>
       <use xlink:href="#DejaVuSans-35" x="95.410156"/>
      </g>
     </g>
    </g>
    <g id="xtick_5">
     <g id="line2d_5">
      <g>
       <use xlink:href="#ma33381e4f1" x="282.115625" y="262.345" style="stroke: #000000; stroke-width: 0.8"/>
      </g>
     </g>
     <g id="text_5">
      <!-- 2.0 -->
      <g transform="translate(274.164062 276.943438) scale(0.1 -0.1)">
       <defs>
        <path id="DejaVuSans-32" d="M 1228 531 
L 3431 531 
L 3431 0 
L 469 0 
L 469 531 
Q 828 903 1448 1529 
Q 2069 2156 2228 2338 
Q 2531 2678 2651 2914 
Q 2772 3150 2772 3378 
Q 2772 3750 2511 3984 
Q 2250 4219 1831 4219 
Q 1534 4219 1204 4116 
Q 875 4013 500 3803 
L 500 4441 
Q 881 4594 1212 4672 
Q 1544 4750 1819 4750 
Q 2544 4750 2975 4387 
Q 3406 4025 3406 3419 
Q 3406 3131 3298 2873 
Q 3191 2616 2906 2266 
Q 2828 2175 2409 1742 
Q 1991 1309 1228 531 
z
" transform="scale(0.015625)"/>
       </defs>
       <use xlink:href="#DejaVuSans-32"/>
       <use xlink:href="#DejaVuSans-2e" x="63.623047"/>
       <use xlink:href="#DejaVuSans-30" x="95.410156"/>
      </g>
     </g>
    </g>
    <g id="xtick_6">
     <g id="line2d_6">
      <g>
       <use xlink:href="#ma33381e4f1" x="340.103125" y="262.345" style="stroke: #000000; stroke-width: 0.8"/>
      </g>
     </g>
     <g id="text_6">
      <!-- 2.5 -->
      <g transform="translate(332.151562 276.943438) scale(0.1 -0.1)">
       <use xlink:href="#DejaVuSans-32"/>
       <use xlink:href="#DejaVuSans-2e" x="63.623047"/>
       <use xlink:href="#DejaVuSans-35" x="95.410156"/>
      </g>
     </g>
    </g>
    <g id="xtick_7">
     <g id="line2d_7">
      <g>
       <use xlink:href="#ma33381e4f1" x="398.090625" y="262.345" style="stroke: #000000; stroke-width: 0.8"/>
      </g>
     </g>
     <g id="text_7">
      <!-- 3.0 -->
      <g transform="translate(390.139062 276.943438) scale(0.1 -0.1)">
       <defs>
        <path id="DejaVuSans-33" d="M 2597 2516 
Q 3050 2419 3304 2112 
Q 3559 1806 3559 1356 
Q 3559 666 3084 287 
Q 2609 -91 1734 -91 
Q 1441 -91 1130 -33 
Q 819 25 488 141 
L 488 750 
Q 750 597 1062 519 
Q 1375 441 1716 441 
Q 2309 441 2620 675 
Q 2931 909 2931 1356 
Q 2931 1769 2642 2001 
Q 2353 2234 1838 2234 
L 1294 2234 
L 1294 2753 
L 1863 2753 
Q 2328 2753 2575 2939 
Q 2822 3125 2822 3475 
Q 2822 3834 2567 4026 
Q 2313 4219 1838 4219 
Q 1578 4219 1281 4162 
Q 984 4106 628 3988 
L 628 4550 
Q 988 4650 1302 4700 
Q 1616 4750 1894 4750 
Q 2613 4750 3031 4423 
Q 3450 4097 3450 3541 
Q 3450 3153 3228 2886 
Q 3006 2619 2597 2516 
z
" transform="scale(0.015625)"/>
       </defs>
       <use xlink:href="#DejaVuSans-33"/>
       <use xlink:href="#DejaVuSans-2e" x="63.623047"/>
       <use xlink:href="#DejaVuSans-30" x="95.410156"/>
      </g>
     </g>
    </g>
    <g id="text_8">
     <!-- $x$ in m -->
     <g transform="translate(231.723125 290.621562) scale(0.1 -0.1)">
      <defs>
       <path id="DejaVuSans-Oblique-78" d="M 3841 3500 
L 2234 1784 
L 3219 0 
L 2559 0 
L 1819 1388 
L 531 0 
L -166 0 
L 1556 1844 
L 641 3500 
L 1300 3500 
L 1972 2234 
L 3144 3500 
L 3841 3500 
z
" transform="scale(0.015625)"/>
       <path id="DejaVuSans-20" transform="scale(0.015625)"/>
       <path id="DejaVuSans-69" d="M 603 3500 
L 1178 3500 
L 1178 0 
L 603 0 
L 603 3500 
z
M 603 4863 
L 1178 4863 
L 1178 4134 
L 603 4134 
L 603 4863 
z
" transform="scale(0.015625)"/>
       <path id="DejaVuSans-6e" d="M 3513 2113 
L 3513 0 
L 2938 0 
L 2938 2094 
Q 2938 2591 2744 2837 
Q 2550 3084 2163 3084 
Q 1697 3084 1428 2787 
Q 1159 2491 1159 1978 
L 1159 0 
L 581 0 
L 581 3500 
L 1159 3500 
L 1159 2956 
Q 1366 3272 1645 3428 
Q 1925 3584 2291 3584 
Q 2894 3584 3203 3211 
Q 3513 2838 3513 2113 
z
" transform="scale(0.015625)"/>
       <path id="DejaVuSans-6d" d="M 3328 2828 
Q 3544 3216 3844 3400 
Q 4144 3584 4550 3584 
Q 5097 3584 5394 3201 
Q 5691 2819 5691 2113 
L 5691 0 
L 5113 0 
L 5113 2094 
Q 5113 2597 4934 2840 
Q 4756 3084 4391 3084 
Q 3944 3084 3684 2787 
Q 3425 2491 3425 1978 
L 3425 0 
L 2847 0 
L 2847 2094 
Q 2847 2600 2669 2842 
Q 2491 3084 2119 3084 
Q 1678 3084 1418 2786 
Q 1159 2488 1159 1978 
L 1159 0 
L 581 0 
L 581 3500 
L 1159 3500 
L 1159 2956 
Q 1356 3278 1631 3431 
Q 1906 3584 2284 3584 
Q 2666 3584 2933 3390 
Q 3200 3197 3328 2828 
z
" transform="scale(0.015625)"/>
      </defs>
      <use xlink:href="#DejaVuSans-Oblique-78" transform="translate(0 0.015625)"/>
      <use xlink:href="#DejaVuSans-20" transform="translate(59.179688 0.015625)"/>
      <use xlink:href="#DejaVuSans-69" transform="translate(90.966797 0.015625)"/>
      <use xlink:href="#DejaVuSans-6e" transform="translate(118.75 0.015625)"/>
      <use xlink:href="#DejaVuSans-20" transform="translate(182.128906 0.015625)"/>
      <use xlink:href="#DejaVuSans-6d" transform="translate(213.916016 0.015625)"/>
     </g>
    </g>
   </g>
   <g id="matplotlib.axis_2">
    <g id="ytick_1">
     <g id="line2d_8">
      <defs>
       <path id="m147caaf270" d="M 0 0 
L -3.5 0 
" style="stroke: #000000; stroke-width: 0.8"/>
      </defs>
      <g>
       <use xlink:href="#m147caaf270" x="50.165625" y="262.345" style="stroke: #000000; stroke-width: 0.8"/>
      </g>
     </g>
     <g id="text_9">
      <!-- 0.00 -->
      <g transform="translate(20.9 266.144219) scale(0.1 -0.1)">
       <use xlink:href="#DejaVuSans-30"/>
       <use xlink:href="#DejaVuSans-2e" x="63.623047"/>
       <use xlink:href="#DejaVuSans-30" x="95.410156"/>
       <use xlink:href="#DejaVuSans-30" x="159.033203"/>
      </g>
     </g>
    </g>
    <g id="ytick_2">
     <g id="line2d_9">
      <g>
       <use xlink:href="#m147caaf270" x="50.165625" y="233.35125" style="stroke: #000000; stroke-width: 0.8"/>
      </g>
     </g>
     <g id="text_10">
      <!-- 0.25 -->
      <g transform="translate(20.9 237.150469) scale(0.1 -0.1)">
       <use xlink:href="#DejaVuSans-30"/>
       <use xlink:href="#DejaVuSans-2e" x="63.623047"/>
       <use xlink:href="#DejaVuSans-32" x="95.410156"/>
       <use xlink:href="#DejaVuSans-35" x="159.033203"/>
      </g>
     </g>
    </g>
    <g id="ytick_3">
     <g id="line2d_10">
      <g>
       <use xlink:href="#m147caaf270" x="50.165625" y="204.3575" style="stroke: #000000; stroke-width: 0.8"/>
      </g>
     </g>
     <g id="text_11">
      <!-- 0.50 -->
      <g transform="translate(20.9 208.156719) scale(0.1 -0.1)">
       <use xlink:href="#DejaVuSans-30"/>
       <use xlink:href="#DejaVuSans-2e" x="63.623047"/>
       <use xlink:href="#DejaVuSans-35" x="95.410156"/>
       <use xlink:href="#DejaVuSans-30" x="159.033203"/>
      </g>
     </g>
    </g>
    <g id="ytick_4">
     <g id="line2d_11">
      <g>
       <use xlink:href="#m147caaf270" x="50.165625" y="175.36375" style="stroke: #000000; stroke-width: 0.8"/>
      </g>
     </g>
     <g id="text_12">
      <!-- 0.75 -->
      <g transform="translate(20.9 179.162969) scale(0.1 -0.1)">
       <defs>
        <path id="DejaVuSans-37" d="M 525 4666 
L 3525 4666 
L 3525 4397 
L 1831 0 
L 1172 0 
L 2766 4134 
L 525 4134 
L 525 4666 
z
" transform="scale(0.015625)"/>
       </defs>
       <use xlink:href="#DejaVuSans-30"/>
       <use xlink:href="#DejaVuSans-2e" x="63.623047"/>
       <use xlink:href="#DejaVuSans-37" x="95.410156"/>
       <use xlink:href="#DejaVuSans-35" x="159.033203"/>
      </g>
     </g>
    </g>
    <g id="ytick_5">
     <g id="line2d_12">
      <g>
       <use xlink:href="#m147caaf270" x="50.165625" y="146.37" style="stroke: #000000; stroke-width: 0.8"/>
      </g>
     </g>
     <g id="text_13">
      <!-- 1.00 -->
      <g transform="translate(20.9 150.169219) scale(0.1 -0.1)">
       <use xlink:href="#DejaVuSans-31"/>
       <use xlink:href="#DejaVuSans-2e" x="63.623047"/>
       <use xlink:href="#DejaVuSans-30" x="95.410156"/>
       <use xlink:href="#DejaVuSans-30" x="159.033203"/>
      </g>
     </g>
    </g>
    <g id="ytick_6">
     <g id="line2d_13">
      <g>
       <use xlink:href="#m147caaf270" x="50.165625" y="117.37625" style="stroke: #000000; stroke-width: 0.8"/>
      </g>
     </g>
     <g id="text_14">
      <!-- 1.25 -->
      <g transform="translate(20.9 121.175469) scale(0.1 -0.1)">
       <use xlink:href="#DejaVuSans-31"/>
       <use xlink:href="#DejaVuSans-2e" x="63.623047"/>
       <use xlink:href="#DejaVuSans-32" x="95.410156"/>
       <use xlink:href="#DejaVuSans-35" x="159.033203"/>
      </g>
     </g>
    </g>
    <g id="ytick_7">
     <g id="line2d_14">
      <g>
       <use xlink:href="#m147caaf270" x="50.165625" y="88.3825" style="stroke: #000000; stroke-width: 0.8"/>
      </g>
     </g>
     <g id="text_15">
      <!-- 1.50 -->
      <g transform="translate(20.9 92.181719) scale(0.1 -0.1)">
       <use xlink:href="#DejaVuSans-31"/>
       <use xlink:href="#DejaVuSans-2e" x="63.623047"/>
       <use xlink:href="#DejaVuSans-35" x="95.410156"/>
       <use xlink:href="#DejaVuSans-30" x="159.033203"/>
      </g>
     </g>
    </g>
    <g id="ytick_8">
     <g id="line2d_15">
      <g>
       <use xlink:href="#m147caaf270" x="50.165625" y="59.38875" style="stroke: #000000; stroke-width: 0.8"/>
      </g>
     </g>
     <g id="text_16">
      <!-- 1.75 -->
      <g transform="translate(20.9 63.187969) scale(0.1 -0.1)">
       <use xlink:href="#DejaVuSans-31"/>
       <use xlink:href="#DejaVuSans-2e" x="63.623047"/>
       <use xlink:href="#DejaVuSans-37" x="95.410156"/>
       <use xlink:href="#DejaVuSans-35" x="159.033203"/>
      </g>
     </g>
    </g>
    <g id="ytick_9">
     <g id="line2d_16">
      <g>
       <use xlink:href="#m147caaf270" x="50.165625" y="30.395" style="stroke: #000000; stroke-width: 0.8"/>
      </g>
     </g>
     <g id="text_17">
      <!-- 2.00 -->
      <g transform="translate(20.9 34.194219) scale(0.1 -0.1)">
       <use xlink:href="#DejaVuSans-32"/>
       <use xlink:href="#DejaVuSans-2e" x="63.623047"/>
       <use xlink:href="#DejaVuSans-30" x="95.410156"/>
       <use xlink:href="#DejaVuSans-30" x="159.033203"/>
      </g>
     </g>
    </g>
    <g id="text_18">
     <!-- $y$ in m -->
     <g transform="translate(14.8 150.3725) rotate(-90) scale(0.1 -0.1)">
      <defs>
       <path id="DejaVuSans-Oblique-79" d="M 1588 -325 
Q 1188 -997 936 -1164 
Q 684 -1331 294 -1331 
L -159 -1331 
L -63 -850 
L 269 -850 
Q 509 -850 678 -719 
Q 847 -588 1056 -206 
L 1234 128 
L 459 3500 
L 1069 3500 
L 1650 819 
L 3256 3500 
L 3859 3500 
L 1588 -325 
z
" transform="scale(0.015625)"/>
      </defs>
      <use xlink:href="#DejaVuSans-Oblique-79" transform="translate(0 0.015625)"/>
      <use xlink:href="#DejaVuSans-20" transform="translate(59.179688 0.015625)"/>
      <use xlink:href="#DejaVuSans-69" transform="translate(90.966797 0.015625)"/>
      <use xlink:href="#DejaVuSans-6e" transform="translate(118.75 0.015625)"/>
      <use xlink:href="#DejaVuSans-20" transform="translate(182.128906 0.015625)"/>
      <use xlink:href="#DejaVuSans-6d" transform="translate(213.916016 0.015625)"/>
     </g>
    </g>
   </g>
   <g id="LineCollection_1">
    <path d="M 166.140625 262.345 
L 166.140625 146.37 
" clip-path="url(#p0681675f3f)" style="fill: none; stroke: #000000; stroke-width: 0.3"/>
    <path d="M 166.140625 146.37 
L 50.165625 146.37 
" clip-path="url(#p0681675f3f)" style="fill: none; stroke: #000000; stroke-width: 0.3"/>
    <path d="M 305.310625 262.345 
L 305.310625 146.37 
" clip-path="url(#p0681675f3f)" style="fill: none; stroke: #000000; stroke-width: 0.3"/>
    <path d="M 305.310625 146.37 
L 166.140625 146.37 
" clip-path="url(#p0681675f3f)" style="fill: none; stroke: #000000; stroke-width: 0.3"/>
    <path d="M 444.480625 146.37 
L 305.310625 146.37 
" clip-path="url(#p0681675f3f)" style="fill: none; stroke: #000000; stroke-width: 0.3"/>
    <path d="M 166.140625 146.37 
L 166.140625 7.2 
" clip-path="url(#p0681675f3f)" style="fill: none; stroke: #000000; stroke-width: 0.3"/>
    <path d="M 305.310625 146.37 
L 305.310625 7.2 
" clip-path="url(#p0681675f3f)" style="fill: none; stroke: #000000; stroke-width: 0.3"/>
   </g>
   <g id="LineCollection_2">
    <path d="M 50.165625 262.345 
L 166.140625 262.345 
" clip-path="url(#p0681675f3f)" style="fill: none; stroke: #000000; stroke-width: 0.3"/>
    <path d="M 50.165625 146.37 
L 50.165625 262.345 
" clip-path="url(#p0681675f3f)" style="fill: none; stroke: #000000; stroke-width: 0.3"/>
    <path d="M 166.140625 262.345 
L 305.310625 262.345 
" clip-path="url(#p0681675f3f)" style="fill: none; stroke: #000000; stroke-width: 0.3"/>
    <path d="M 305.310625 262.345 
L 444.480625 262.345 
" clip-path="url(#p0681675f3f)" style="fill: none; stroke: #000000; stroke-width: 0.3"/>
    <path d="M 444.480625 262.345 
L 444.480625 146.37 
" clip-path="url(#p0681675f3f)" style="fill: none; stroke: #000000; stroke-width: 0.3"/>
    <path d="M 166.140625 7.2 
L 50.165625 7.2 
" clip-path="url(#p0681675f3f)" style="fill: none; stroke: #000000; stroke-width: 0.3"/>
    <path d="M 50.165625 7.2 
L 50.165625 146.37 
" clip-path="url(#p0681675f3f)" style="fill: none; stroke: #000000; stroke-width: 0.3"/>
    <path d="M 305.310625 7.2 
L 166.140625 7.2 
" clip-path="url(#p0681675f3f)" style="fill: none; stroke: #000000; stroke-width: 0.3"/>
    <path d="M 444.480625 146.37 
L 444.480625 7.2 
" clip-path="url(#p0681675f3f)" style="fill: none; stroke: #000000; stroke-width: 0.3"/>
    <path d="M 444.480625 7.2 
L 305.310625 7.2 
" clip-path="url(#p0681675f3f)" style="fill: none; stroke: #000000; stroke-width: 0.3"/>
   </g>
   <g id="LineCollection_3">
    <path d="M 50.165625 262.345 
L 166.140625 262.345 
" clip-path="url(#p0681675f3f)" style="fill: none; stroke: #000000; stroke-width: 1.4"/>
    <path d="M 50.165625 146.37 
L 50.165625 262.345 
" clip-path="url(#p0681675f3f)" style="fill: none; stroke: #000000; stroke-width: 1.4"/>
    <path d="M 166.140625 262.345 
L 305.310625 262.345 
" clip-path="url(#p0681675f3f)" style="fill: none; stroke: #000000; stroke-width: 1.4"/>
    <path d="M 305.310625 262.345 
L 444.480625 262.345 
" clip-path="url(#p0681675f3f)" style="fill: none; stroke: #000000; stroke-width: 1.4"/>
    <path d="M 444.480625 262.345 
L 444.480625 146.37 
" clip-path="url(#p0681675f3f)" style="fill: none; stroke: #000000; stroke-width: 1.4"/>
    <path d="M 166.140625 7.2 
L 50.165625 7.2 
" clip-path="url(#p0681675f3f)" style="fill: none; stroke: #000000; stroke-width: 1.4"/>
    <path d="M 50.165625 7.2 
L 50.165625 146.37 
" clip-path="url(#p0681675f3f)" style="fill: none; stroke: #000000; stroke-width: 1.4"/>
    <path d="M 305.310625 7.2 
L 166.140625 7.2 
" clip-path="url(#p0681675f3f)" style="fill: none; stroke: #000000; stroke-width: 1.4"/>
    <path d="M 444.480625 146.37 
L 444.480625 7.2 
" clip-path="url(#p0681675f3f)" style="fill: none; stroke: #000000; stroke-width: 1.4"/>
    <path d="M 444.480625 7.2 
L 305.310625 7.2 
" clip-path="url(#p0681675f3f)" style="fill: none; stroke: #000000; stroke-width: 1.4"/>
   </g>
   <g id="line2d_17">
    <defs>
     <path id="mf89eaed153" d="M 0 3 
C 0.795609 3 1.55874 2.683901 2.12132 2.12132 
C 2.683901 1.55874 3 0.795609 3 0 
C 3 -0.795609 2.683901 -1.55874 2.12132 -2.12132 
C 1.55874 -2.683901 0.795609 -3 0 -3 
C -0.795609 -3 -1.55874 -2.683901 -2.12132 -2.12132 
C -2.683901 -1.55874 -3 -0.795609 -3 0 
C -3 0.795609 -2.683901 1.55874 -2.12132 2.12132 
C -1.55874 2.683901 -0.795609 3 0 3 
z
" style="stroke: #000000"/>
    </defs>
    <g clip-path="url(#p0681675f3f)">
     <use xlink:href="#mf89eaed153" x="50.165625" y="262.345" style="stroke: #000000"/>
     <use xlink:href="#mf89eaed153" x="166.140625" y="262.345" style="stroke: #000000"/>
     <use xlink:href="#mf89eaed153" x="305.310625" y="262.345" style="stroke: #000000"/>
     <use xlink:href="#mf89eaed153" x="444.480625" y="262.345" style="stroke: #000000"/>
     <use xlink:href="#mf89eaed153" x="50.165625" y="146.37" style="stroke: #000000"/>
     <use xlink:href="#mf89eaed153" x="166.140625" y="146.37" style="stroke: #000000"/>
     <use xlink:href="#mf89eaed153" x="305.310625" y="146.37" style="stroke: #000000"/>
     <use xlink:href="#mf89eaed153" x="444.480625" y="146.37" style="stroke: #000000"/>
     <use xlink:href="#mf89eaed153" x="50.165625" y="7.2" style="stroke: #000000"/>
     <use xlink:href="#mf89eaed153" x="166.140625" y="7.2" style="stroke: #000000"/>
     <use xlink:href="#mf89eaed153" x="305.310625" y="7.2" style="stroke: #000000"/>
     <use xlink:href="#mf89eaed153" x="444.480625" y="7.2" style="stroke: #000000"/>
    </g>
   </g>
   <g id="line2d_18">
    <path d="M 50.165625 146.37 
L 166.140625 146.37 
L 305.310625 146.37 
" clip-path="url(#p0681675f3f)" style="fill: none; stroke: #0000ff; stroke-width: 4; stroke-linecap: square"/>
    <defs>
     <path id="m383c037fb2" d="M 0 6 
C 1.591219 6 3.117479 5.367802 4.242641 4.242641 
C 5.367802 3.117479 6 1.591219 6 0 
C 6 -1.591219 5.367802 -3.117479 4.242641 -4.242641 
C 3.117479 -5.367802 1.591219 -6 0 -6 
C -1.591219 -6 -3.117479 -5.367802 -4.242641 -4.242641 
C -5.367802 -3.117479 -6 -1.591219 -6 0 
C -6 1.591219 -5.367802 3.117479 -4.242641 4.242641 
C -3.117479 5.367802 -1.591219 6 0 6 
z
" style="stroke: #0000ff"/>
    </defs>
    <g clip-path="url(#p0681675f3f)">
     <use xlink:href="#m383c037fb2" x="50.165625" y="146.37" style="fill: #0000ff; stroke: #0000ff"/>
     <use xlink:href="#m383c037fb2" x="166.140625" y="146.37" style="fill: #0000ff; stroke: #0000ff"/>
     <use xlink:href="#m383c037fb2" x="305.310625" y="146.37" style="fill: #0000ff; stroke: #0000ff"/>
    </g>
   </g>
   <g id="line2d_19">
    <path d="M 166.140625 262.345 
L 166.140625 146.37 
L 166.140625 7.2 
" clip-path="url(#p0681675f3f)" style="fill: none; stroke: #0000ff; stroke-width: 4; stroke-linecap: square"/>
    <g clip-path="url(#p0681675f3f)">
     <use xlink:href="#m383c037fb2" x="166.140625" y="262.345" style="fill: #0000ff; stroke: #0000ff"/>
     <use xlink:href="#m383c037fb2" x="166.140625" y="146.37" style="fill: #0000ff; stroke: #0000ff"/>
     <use xlink:href="#m383c037fb2" x="166.140625" y="7.2" style="fill: #0000ff; stroke: #0000ff"/>
    </g>
   </g>
   <g id="line2d_20">
    <defs>
     <path id="m989f3f4324" d="M 0 6 
C 1.591219 6 3.117479 5.367802 4.242641 4.242641 
C 5.367802 3.117479 6 1.591219 6 0 
C 6 -1.591219 5.367802 -3.117479 4.242641 -4.242641 
C 3.117479 -5.367802 1.591219 -6 0 -6 
C -1.591219 -6 -3.117479 -5.367802 -4.242641 -4.242641 
C -5.367802 -3.117479 -6 -1.591219 -6 0 
C -6 1.591219 -5.367802 3.117479 -4.242641 4.242641 
C -3.117479 5.367802 -1.591219 6 0 6 
z
" style="stroke: #ff0000"/>
    </defs>
    <g clip-path="url(#p0681675f3f)">
     <use xlink:href="#m989f3f4324" x="166.140625" y="146.37" style="fill: #ff0000; stroke: #ff0000"/>
    </g>
   </g>
   <g id="patch_3">
    <path d="M 50.165625 262.345 
L 50.165625 7.2 
" style="fill: none; stroke: #000000; stroke-width: 0.8; stroke-linejoin: miter; stroke-linecap: square"/>
   </g>
   <g id="patch_4">
    <path d="M 444.480625 262.345 
L 444.480625 7.2 
" style="fill: none; stroke: #000000; stroke-width: 0.8; stroke-linejoin: miter; stroke-linecap: square"/>
   </g>
   <g id="patch_5">
    <path d="M 50.165625 262.345 
L 444.480625 262.345 
" style="fill: none; stroke: #000000; stroke-width: 0.8; stroke-linejoin: miter; stroke-linecap: square"/>
   </g>
   <g id="patch_6">
    <path d="M 50.165625 7.2 
L 444.480625 7.2 
" style="fill: none; stroke: #000000; stroke-width: 0.8; stroke-linejoin: miter; stroke-linecap: square"/>
   </g>
   <g id="text_19">
    <!-- $\sigma_{0,0}$ -->
    <g transform="translate(108.153125 204.3575) scale(0.1 -0.1)">
     <defs>
      <path id="DejaVuSans-Oblique-3c3" d="M 2219 3044 
Q 1744 3044 1422 2700 
Q 1081 2341 969 1747 
Q 844 1119 1044 756 
Q 1241 397 1706 397 
Q 2166 397 2503 759 
Q 2844 1122 2966 1747 
Q 3075 2319 2881 2700 
Q 2700 3044 2219 3044 
z
M 2309 3503 
L 4219 3500 
L 4106 2925 
L 3463 2925 
Q 3706 2438 3575 1747 
Q 3406 888 2884 400 
Q 2359 -91 1609 -91 
Q 856 -91 525 400 
Q 194 888 363 1747 
Q 528 2609 1050 3097 
Q 1484 3503 2309 3503 
z
" transform="scale(0.015625)"/>
      <path id="DejaVuSans-2c" d="M 750 794 
L 1409 794 
L 1409 256 
L 897 -744 
L 494 -744 
L 750 256 
L 750 794 
z
" transform="scale(0.015625)"/>
     </defs>
     <use xlink:href="#DejaVuSans-Oblique-3c3" transform="translate(0 0.265625)"/>
     <use xlink:href="#DejaVuSans-30" transform="translate(63.378906 -16.140625) scale(0.7)"/>
     <use xlink:href="#DejaVuSans-2c" transform="translate(107.915039 -16.140625) scale(0.7)"/>
     <use xlink:href="#DejaVuSans-30" transform="translate(143.803711 -16.140625) scale(0.7)"/>
    </g>
   </g>
   <g id="text_20">
    <!-- $\sigma_{0,1}$ -->
    <g transform="translate(108.153125 76.785) scale(0.1 -0.1)">
     <use xlink:href="#DejaVuSans-Oblique-3c3" transform="translate(0 0.265625)"/>
     <use xlink:href="#DejaVuSans-30" transform="translate(63.378906 -16.140625) scale(0.7)"/>
     <use xlink:href="#DejaVuSans-2c" transform="translate(107.915039 -16.140625) scale(0.7)"/>
     <use xlink:href="#DejaVuSans-31" transform="translate(143.803711 -16.140625) scale(0.7)"/>
    </g>
   </g>
   <g id="text_21">
    <!-- $\sigma_{1,0}$ -->
    <g transform="translate(235.725625 204.3575) scale(0.1 -0.1)">
     <use xlink:href="#DejaVuSans-Oblique-3c3" transform="translate(0 0.265625)"/>
     <use xlink:href="#DejaVuSans-31" transform="translate(63.378906 -16.140625) scale(0.7)"/>
     <use xlink:href="#DejaVuSans-2c" transform="translate(107.915039 -16.140625) scale(0.7)"/>
     <use xlink:href="#DejaVuSans-30" transform="translate(143.803711 -16.140625) scale(0.7)"/>
    </g>
   </g>
   <g id="text_22">
    <!-- $\sigma_{1,1}$ -->
    <g transform="translate(235.725625 76.785) scale(0.1 -0.1)">
     <use xlink:href="#DejaVuSans-Oblique-3c3" transform="translate(0 0.265625)"/>
     <use xlink:href="#DejaVuSans-31" transform="translate(63.378906 -16.140625) scale(0.7)"/>
     <use xlink:href="#DejaVuSans-2c" transform="translate(107.915039 -16.140625) scale(0.7)"/>
     <use xlink:href="#DejaVuSans-31" transform="translate(143.803711 -16.140625) scale(0.7)"/>
    </g>
   </g>
   <g id="text_23">
    <!-- $\sigma_{2,0}$ -->
    <g transform="translate(374.895625 204.3575) scale(0.1 -0.1)">
     <use xlink:href="#DejaVuSans-Oblique-3c3" transform="translate(0 0.265625)"/>
     <use xlink:href="#DejaVuSans-32" transform="translate(63.378906 -16.140625) scale(0.7)"/>
     <use xlink:href="#DejaVuSans-2c" transform="translate(107.915039 -16.140625) scale(0.7)"/>
     <use xlink:href="#DejaVuSans-30" transform="translate(143.803711 -16.140625) scale(0.7)"/>
    </g>
   </g>
   <g id="text_24">
    <!-- $\sigma_{2,1}$ -->
    <g transform="translate(374.895625 76.785) scale(0.1 -0.1)">
     <use xlink:href="#DejaVuSans-Oblique-3c3" transform="translate(0 0.265625)"/>
     <use xlink:href="#DejaVuSans-32" transform="translate(63.378906 -16.140625) scale(0.7)"/>
     <use xlink:href="#DejaVuSans-2c" transform="translate(107.915039 -16.140625) scale(0.7)"/>
     <use xlink:href="#DejaVuSans-31" transform="translate(143.803711 -16.140625) scale(0.7)"/>
    </g>
   </g>
  </g>
 </g>
 <defs>
  <clipPath id="p0681675f3f">
   <rect x="50.165625" y="7.2" width="394.315" height="255.145"/>
  </clipPath>
 </defs>
</svg>
