<?xml version="1.0" encoding="utf-8" standalone="no"?>
<!DOCTYPE svg PUBLIC "-//W3C//DTD SVG 1.1//EN"
  "http://www.w3.org/Graphics/SVG/1.1/DTD/svg11.dtd">
<svg xmlns:xlink="http://www.w3.org/1999/xlink" width="494.203125pt" height="267.95625pt" viewBox="0 0 494.203125 267.95625" xmlns="http://www.w3.org/2000/svg" version="1.1">
 <metadata>
  <rdf:RDF xmlns:dc="http://purl.org/dc/elements/1.1/" xmlns:cc="http://creativecommons.org/ns#" xmlns:rdf="http://www.w3.org/1999/02/22-rdf-syntax-ns#">
   <cc:Work>
    <dc:type rdf:resource="http://purl.org/dc/dcmitype/StillImage"/>
    <dc:date>2025-12-18T07:42:20.362266</dc:date>
    <dc:format>image/svg+xml</dc:format>
    <dc:creator>
     <cc:Agent>
      <dc:title>Matplotlib v3.10.7, https://matplotlib.org/</dc:title>
     </cc:Agent>
    </dc:creator>
   </cc:Work>
  </rdf:RDF>
 </metadata>
 <defs>
  <style type="text/css">*{stroke-linejoin: round; stroke-linecap: butt}</style>
 </defs>
 <g id="figure_1">
  <g id="patch_1">
   <path d="M 0 267.95625 
L 494.203125 267.95625 
L 494.203125 0 
L 0 0 
z
" style="fill: #ffffff"/>
  </g>
  <g id="axes_1">
   <g id="patch_2">
    <path d="M 40.603125 244.078125 
L 137.646603 244.078125 
L 137.646603 22.318125 
L 40.603125 22.318125 
z
" style="fill: #ffffff"/>
   </g>
   <g id="matplotlib.axis_1">
    <g id="xtick_1">
     <g id="line2d_1">
      <path d="M 54.088364 244.078125 
L 54.088364 22.318125 
" clip-path="url(#p6562b0a358)" style="fill: none; stroke: #b0b0b0; stroke-width: 0.8; stroke-linecap: square"/>
     </g>
     <g id="line2d_2">
      <defs>
       <path id="m9cf80f6b44" d="M 0 0 
L 0 3.5 
" style="stroke: #000000; stroke-width: 0.8"/>
      </defs>
      <g>
       <use xlink:href="#m9cf80f6b44" x="54.088364" y="244.078125" style="stroke: #000000; stroke-width: 0.8"/>
      </g>
     </g>
     <g id="text_1">
      <!-- 0.0 -->
      <g transform="translate(46.136802 258.676562) scale(0.1 -0.1)">
       <defs>
        <path id="DejaVuSans-30" d="M 2034 4250 
Q 1547 4250 1301 3770 
Q 1056 3291 1056 2328 
Q 1056 1369 1301 889 
Q 1547 409 2034 409 
Q 2525 409 2770 889 
Q 3016 1369 3016 2328 
Q 3016 3291 2770 3770 
Q 2525 4250 2034 4250 
z
M 2034 4750 
Q 2819 4750 3233 4129 
Q 3647 3509 3647 2328 
Q 3647 1150 3233 529 
Q 2819 -91 2034 -91 
Q 1250 -91 836 529 
Q 422 1150 422 2328 
Q 422 3509 836 4129 
Q 1250 4750 2034 4750 
z
" transform="scale(0.015625)"/>
        <path id="DejaVuSans-2e" d="M 684 794 
L 1344 794 
L 1344 0 
L 684 0 
L 684 794 
z
" transform="scale(0.015625)"/>
       </defs>
       <use xlink:href="#DejaVuSans-30"/>
       <use xlink:href="#DejaVuSans-2e" transform="translate(63.623047 0)"/>
       <use xlink:href="#DejaVuSans-30" transform="translate(95.410156 0)"/>
      </g>
     </g>
    </g>
    <g id="xtick_2">
     <g id="line2d_3">
      <path d="M 91.65692 244.078125 
L 91.65692 22.318125 
" clip-path="url(#p6562b0a358)" style="fill: none; stroke: #b0b0b0; stroke-width: 0.8; stroke-linecap: square"/>
     </g>
     <g id="line2d_4">
      <g>
       <use xlink:href="#m9cf80f6b44" x="91.65692" y="244.078125" style="stroke: #000000; stroke-width: 0.8"/>
      </g>
     </g>
     <g id="text_2">
      <!-- 0.5 -->
      <g transform="translate(83.705357 258.676562) scale(0.1 -0.1)">
       <defs>
        <path id="DejaVuSans-35" d="M 691 4666 
L 3169 4666 
L 3169 4134 
L 1269 4134 
L 1269 2991 
Q 1406 3038 1543 3061 
Q 1681 3084 1819 3084 
Q 2600 3084 3056 2656 
Q 3513 2228 3513 1497 
Q 3513 744 3044 326 
Q 2575 -91 1722 -91 
Q 1428 -91 1123 -41 
Q 819 9 494 109 
L 494 744 
Q 775 591 1075 516 
Q 1375 441 1709 441 
Q 2250 441 2565 725 
Q 2881 1009 2881 1497 
Q 2881 1984 2565 2268 
Q 2250 2553 1709 2553 
Q 1456 2553 1204 2497 
Q 953 2441 691 2322 
L 691 4666 
z
" transform="scale(0.015625)"/>
       </defs>
       <use xlink:href="#DejaVuSans-30"/>
       <use xlink:href="#DejaVuSans-2e" transform="translate(63.623047 0)"/>
       <use xlink:href="#DejaVuSans-35" transform="translate(95.410156 0)"/>
      </g>
     </g>
    </g>
    <g id="xtick_3">
     <g id="line2d_5">
      <path d="M 129.225475 244.078125 
L 129.225475 22.318125 
" clip-path="url(#p6562b0a358)" style="fill: none; stroke: #b0b0b0; stroke-width: 0.8; stroke-linecap: square"/>
     </g>
     <g id="line2d_6">
      <g>
       <use xlink:href="#m9cf80f6b44" x="129.225475" y="244.078125" style="stroke: #000000; stroke-width: 0.8"/>
      </g>
     </g>
     <g id="text_3">
      <!-- 1.0 -->
      <g transform="translate(121.273912 258.676562) scale(0.1 -0.1)">
       <defs>
        <path id="DejaVuSans-31" d="M 794 531 
L 1825 531 
L 1825 4091 
L 703 3866 
L 703 4441 
L 1819 4666 
L 2450 4666 
L 2450 531 
L 3481 531 
L 3481 0 
L 794 0 
L 794 531 
z
" transform="scale(0.015625)"/>
       </defs>
       <use xlink:href="#DejaVuSans-31"/>
       <use xlink:href="#DejaVuSans-2e" transform="translate(63.623047 0)"/>
       <use xlink:href="#DejaVuSans-30" transform="translate(95.410156 0)"/>
      </g>
     </g>
    </g>
   </g>
   <g id="matplotlib.axis_2">
    <g id="ytick_1">
     <g id="line2d_7">
      <path d="M 40.603125 32.398125 
L 137.646603 32.398125 
" clip-path="url(#p6562b0a358)" style="fill: none; stroke: #b0b0b0; stroke-width: 0.8; stroke-linecap: square"/>
     </g>
     <g id="line2d_8">
      <defs>
       <path id="m32d2fed336" d="M 0 0 
L -3.5 0 
" style="stroke: #000000; stroke-width: 0.8"/>
      </defs>
      <g>
       <use xlink:href="#m32d2fed336" x="40.603125" y="32.398125" style="stroke: #000000; stroke-width: 0.8"/>
      </g>
     </g>
     <g id="text_4">
      <!-- 0 -->
      <g transform="translate(27.240625 36.197344) scale(0.1 -0.1)">
       <use xlink:href="#DejaVuSans-30"/>
      </g>
     </g>
    </g>
    <g id="ytick_2">
     <g id="line2d_9">
      <path d="M 40.603125 72.718125 
L 137.646603 72.718125 
" clip-path="url(#p6562b0a358)" style="fill: none; stroke: #b0b0b0; stroke-width: 0.8; stroke-linecap: square"/>
     </g>
     <g id="line2d_10">
      <g>
       <use xlink:href="#m32d2fed336" x="40.603125" y="72.718125" style="stroke: #000000; stroke-width: 0.8"/>
      </g>
     </g>
     <g id="text_5">
      <!-- 2 -->
      <g transform="translate(27.240625 76.517344) scale(0.1 -0.1)">
       <defs>
        <path id="DejaVuSans-32" d="M 1228 531 
L 3431 531 
L 3431 0 
L 469 0 
L 469 531 
Q 828 903 1448 1529 
Q 2069 2156 2228 2338 
Q 2531 2678 2651 2914 
Q 2772 3150 2772 3378 
Q 2772 3750 2511 3984 
Q 2250 4219 1831 4219 
Q 1534 4219 1204 4116 
Q 875 4013 500 3803 
L 500 4441 
Q 881 4594 1212 4672 
Q 1544 4750 1819 4750 
Q 2544 4750 2975 4387 
Q 3406 4025 3406 3419 
Q 3406 3131 3298 2873 
Q 3191 2616 2906 2266 
Q 2828 2175 2409 1742 
Q 1991 1309 1228 531 
z
" transform="scale(0.015625)"/>
       </defs>
       <use xlink:href="#DejaVuSans-32"/>
      </g>
     </g>
    </g>
    <g id="ytick_3">
     <g id="line2d_11">
      <path d="M 40.603125 113.038125 
L 137.646603 113.038125 
" clip-path="url(#p6562b0a358)" style="fill: none; stroke: #b0b0b0; stroke-width: 0.8; stroke-linecap: square"/>
     </g>
     <g id="line2d_12">
      <g>
       <use xlink:href="#m32d2fed336" x="40.603125" y="113.038125" style="stroke: #000000; stroke-width: 0.8"/>
      </g>
     </g>
     <g id="text_6">
      <!-- 4 -->
      <g transform="translate(27.240625 116.837344) scale(0.1 -0.1)">
       <defs>
        <path id="DejaVuSans-34" d="M 2419 4116 
L 825 1625 
L 2419 1625 
L 2419 4116 
z
M 2253 4666 
L 3047 4666 
L 3047 1625 
L 3713 1625 
L 3713 1100 
L 3047 1100 
L 3047 0 
L 2419 0 
L 2419 1100 
L 313 1100 
L 313 1709 
L 2253 4666 
z
" transform="scale(0.015625)"/>
       </defs>
       <use xlink:href="#DejaVuSans-34"/>
      </g>
     </g>
    </g>
    <g id="ytick_4">
     <g id="line2d_13">
      <path d="M 40.603125 153.358125 
L 137.646603 153.358125 
" clip-path="url(#p6562b0a358)" style="fill: none; stroke: #b0b0b0; stroke-width: 0.8; stroke-linecap: square"/>
     </g>
     <g id="line2d_14">
      <g>
       <use xlink:href="#m32d2fed336" x="40.603125" y="153.358125" style="stroke: #000000; stroke-width: 0.8"/>
      </g>
     </g>
     <g id="text_7">
      <!-- 6 -->
      <g transform="translate(27.240625 157.157344) scale(0.1 -0.1)">
       <defs>
        <path id="DejaVuSans-36" d="M 2113 2584 
Q 1688 2584 1439 2293 
Q 1191 2003 1191 1497 
Q 1191 994 1439 701 
Q 1688 409 2113 409 
Q 2538 409 2786 701 
Q 3034 994 3034 1497 
Q 3034 2003 2786 2293 
Q 2538 2584 2113 2584 
z
M 3366 4563 
L 3366 3988 
Q 3128 4100 2886 4159 
Q 2644 4219 2406 4219 
Q 1781 4219 1451 3797 
Q 1122 3375 1075 2522 
Q 1259 2794 1537 2939 
Q 1816 3084 2150 3084 
Q 2853 3084 3261 2657 
Q 3669 2231 3669 1497 
Q 3669 778 3244 343 
Q 2819 -91 2113 -91 
Q 1303 -91 875 529 
Q 447 1150 447 2328 
Q 447 3434 972 4092 
Q 1497 4750 2381 4750 
Q 2619 4750 2861 4703 
Q 3103 4656 3366 4563 
z
" transform="scale(0.015625)"/>
       </defs>
       <use xlink:href="#DejaVuSans-36"/>
      </g>
     </g>
    </g>
    <g id="ytick_5">
     <g id="line2d_15">
      <path d="M 40.603125 193.678125 
L 137.646603 193.678125 
" clip-path="url(#p6562b0a358)" style="fill: none; stroke: #b0b0b0; stroke-width: 0.8; stroke-linecap: square"/>
     </g>
     <g id="line2d_16">
      <g>
       <use xlink:href="#m32d2fed336" x="40.603125" y="193.678125" style="stroke: #000000; stroke-width: 0.8"/>
      </g>
     </g>
     <g id="text_8">
      <!-- 8 -->
      <g transform="translate(27.240625 197.477344) scale(0.1 -0.1)">
       <defs>
        <path id="DejaVuSans-38" d="M 2034 2216 
Q 1584 2216 1326 1975 
Q 1069 1734 1069 1313 
Q 1069 891 1326 650 
Q 1584 409 2034 409 
Q 2484 409 2743 651 
Q 3003 894 3003 1313 
Q 3003 1734 2745 1975 
Q 2488 2216 2034 2216 
z
M 1403 2484 
Q 997 2584 770 2862 
Q 544 3141 544 3541 
Q 544 4100 942 4425 
Q 1341 4750 2034 4750 
Q 2731 4750 3128 4425 
Q 3525 4100 3525 3541 
Q 3525 3141 3298 2862 
Q 3072 2584 2669 2484 
Q 3125 2378 3379 2068 
Q 3634 1759 3634 1313 
Q 3634 634 3220 271 
Q 2806 -91 2034 -91 
Q 1263 -91 848 271 
Q 434 634 434 1313 
Q 434 1759 690 2068 
Q 947 2378 1403 2484 
z
M 1172 3481 
Q 1172 3119 1398 2916 
Q 1625 2713 2034 2713 
Q 2441 2713 2670 2916 
Q 2900 3119 2900 3481 
Q 2900 3844 2670 4047 
Q 2441 4250 2034 4250 
Q 1625 4250 1398 4047 
Q 1172 3844 1172 3481 
z
" transform="scale(0.015625)"/>
       </defs>
       <use xlink:href="#DejaVuSans-38"/>
      </g>
     </g>
    </g>
    <g id="ytick_6">
     <g id="line2d_17">
      <path d="M 40.603125 233.998125 
L 137.646603 233.998125 
" clip-path="url(#p6562b0a358)" style="fill: none; stroke: #b0b0b0; stroke-width: 0.8; stroke-linecap: square"/>
     </g>
     <g id="line2d_18">
      <g>
       <use xlink:href="#m32d2fed336" x="40.603125" y="233.998125" style="stroke: #000000; stroke-width: 0.8"/>
      </g>
     </g>
     <g id="text_9">
      <!-- 10 -->
      <g transform="translate(20.878125 237.797344) scale(0.1 -0.1)">
       <use xlink:href="#DejaVuSans-31"/>
       <use xlink:href="#DejaVuSans-30" transform="translate(63.623047 0)"/>
      </g>
     </g>
    </g>
    <g id="text_10">
     <!-- z (km) -->
     <g transform="translate(14.798438 149.078594) rotate(-90) scale(0.1 -0.1)">
      <defs>
       <path id="DejaVuSans-7a" d="M 353 3500 
L 3084 3500 
L 3084 2975 
L 922 459 
L 3084 459 
L 3084 0 
L 275 0 
L 275 525 
L 2438 3041 
L 353 3041 
L 353 3500 
z
" transform="scale(0.015625)"/>
       <path id="DejaVuSans-20" transform="scale(0.015625)"/>
       <path id="DejaVuSans-28" d="M 1984 4856 
Q 1566 4138 1362 3434 
Q 1159 2731 1159 2009 
Q 1159 1288 1364 580 
Q 1569 -128 1984 -844 
L 1484 -844 
Q 1016 -109 783 600 
Q 550 1309 550 2009 
Q 550 2706 781 3412 
Q 1013 4119 1484 4856 
L 1984 4856 
z
" transform="scale(0.015625)"/>
       <path id="DejaVuSans-6b" d="M 581 4863 
L 1159 4863 
L 1159 1991 
L 2875 3500 
L 3609 3500 
L 1753 1863 
L 3688 0 
L 2938 0 
L 1159 1709 
L 1159 0 
L 581 0 
L 581 4863 
z
" transform="scale(0.015625)"/>
       <path id="DejaVuSans-6d" d="M 3328 2828 
Q 3544 3216 3844 3400 
Q 4144 3584 4550 3584 
Q 5097 3584 5394 3201 
Q 5691 2819 5691 2113 
L 5691 0 
L 5113 0 
L 5113 2094 
Q 5113 2597 4934 2840 
Q 4756 3084 4391 3084 
Q 3944 3084 3684 2787 
Q 3425 2491 3425 1978 
L 3425 0 
L 2847 0 
L 2847 2094 
Q 2847 2600 2669 2842 
Q 2491 3084 2119 3084 
Q 1678 3084 1418 2786 
Q 1159 2488 1159 1978 
L 1159 0 
L 581 0 
L 581 3500 
L 1159 3500 
L 1159 2956 
Q 1356 3278 1631 3431 
Q 1906 3584 2284 3584 
Q 2666 3584 2933 3390 
Q 3200 3197 3328 2828 
z
" transform="scale(0.015625)"/>
       <path id="DejaVuSans-29" d="M 513 4856 
L 1013 4856 
Q 1481 4119 1714 3412 
Q 1947 2706 1947 2009 
Q 1947 1309 1714 600 
Q 1481 -109 1013 -844 
L 513 -844 
Q 928 -128 1133 580 
Q 1338 1288 1338 2009 
Q 1338 2731 1133 3434 
Q 928 4138 513 4856 
z
" transform="scale(0.015625)"/>
      </defs>
      <use xlink:href="#DejaVuSans-7a"/>
      <use xlink:href="#DejaVuSans-20" transform="translate(52.490234 0)"/>
      <use xlink:href="#DejaVuSans-28" transform="translate(84.277344 0)"/>
      <use xlink:href="#DejaVuSans-6b" transform="translate(123.291016 0)"/>
      <use xlink:href="#DejaVuSans-6d" transform="translate(181.201172 0)"/>
      <use xlink:href="#DejaVuSans-29" transform="translate(278.613281 0)"/>
     </g>
    </g>
   </g>
   <g id="line2d_19">
    <path d="M 54.228679 233.998125 
L 54.246212 229.966125 
L 54.263103 225.934125 
L 54.278562 221.902125 
L 54.291627 217.870125 
L 54.301146 213.838125 
L 54.305765 209.806125 
L 54.303918 205.774125 
L 54.293824 201.742125 
L 54.273488 197.710125 
L 54.240712 193.678125 
L 54.193114 189.646125 
L 54.128166 185.614125 
L 54.043234 181.582125 
L 53.93565 177.550125 
L 53.802796 173.518125 
L 53.642208 169.486125 
L 53.451712 165.454125 
L 53.229586 161.422125 
L 52.974745 157.390125 
L 52.68697 153.358125 
L 52.367154 149.326125 
L 52.017596 145.294125 
L 51.642317 141.262125 
L 51.247405 137.230125 
L 50.841395 133.198125 
L 50.435655 129.166125 
L 50.044793 125.134125 
L 49.687055 121.102125 
L 49.38472 117.070125 
L 49.164444 113.038125 
L 49.057562 109.006125 
L 49.100302 104.974125 
L 49.333885 100.942125 
L 49.804476 96.910125 
L 50.562943 92.878125 
L 51.664379 88.846125 
L 53.167336 84.814125 
L 55.132719 80.782125 
L 57.622272 76.750125 
L 60.696612 72.718125 
L 64.412734 68.686125 
L 68.820933 64.654125 
L 73.961094 60.622125 
L 79.85828 56.590125 
L 86.517611 52.558125 
L 93.918373 48.526125 
L 102.00738 44.494125 
L 110.691605 40.462125 
L 119.830124 36.430125 
L 129.225475 32.398125 
" clip-path="url(#p6562b0a358)" style="fill: none; stroke: #1f77b4; stroke-width: 1.5; stroke-linecap: square"/>
   </g>
   <g id="line2d_20">
    <path d="M 54.389136 233.998125 
L 54.389136 229.966125 
L 54.388528 225.934125 
L 54.387013 221.902125 
L 54.383992 217.870125 
L 54.378569 213.838125 
L 54.369553 209.806125 
L 54.355465 205.774125 
L 54.334548 201.742125 
L 54.304782 197.710125 
L 54.2639 193.678125 
L 54.209428 189.646125 
L 54.138718 185.614125 
L 54.049008 181.582125 
L 53.937492 177.550125 
L 53.80141 173.518125 
L 53.638161 169.486125 
L 53.445439 165.454125 
L 53.221398 161.422125 
L 52.964843 157.390125 
L 52.675453 153.358125 
L 52.354041 149.326125 
L 52.002838 145.294125 
L 51.625817 141.262125 
L 51.229037 137.230125 
L 50.821022 133.198125 
L 50.41315 129.166125 
L 50.020061 125.134125 
L 49.660052 121.102125 
L 49.355469 117.070125 
L 49.133057 113.038125 
L 49.024253 109.006125 
L 49.0654 104.974125 
L 49.297843 100.942125 
L 49.76787 96.910125 
L 50.526472 92.878125 
L 51.628852 88.846125 
L 53.133652 84.814125 
L 55.101833 80.782125 
L 57.595154 76.750125 
L 60.674189 72.718125 
L 64.395819 68.686125 
L 68.810143 64.654125 
L 73.956748 60.622125 
L 79.860294 56.590125 
L 86.525371 52.558125 
L 93.93061 48.526125 
L 102.022042 44.494125 
L 110.705731 40.462125 
L 119.839731 36.430125 
L 129.225475 32.398125 
" clip-path="url(#p6562b0a358)" style="fill: none; stroke-dasharray: 5.55,2.4; stroke-dashoffset: 0; stroke: #ff7f0e; stroke-width: 1.5"/>
   </g>
   <g id="LineCollection_1">
    <path d="M 45.014192 64.483762 
L 133.235536 64.483762 
" clip-path="url(#p6562b0a358)" style="fill: none; stroke-dasharray: 5.55,2.4; stroke-dashoffset: 0; stroke: #1f77b4; stroke-width: 1.5"/>
   </g>
   <g id="patch_3">
    <path d="M 40.603125 244.078125 
L 40.603125 22.318125 
" style="fill: none; stroke: #000000; stroke-width: 0.8; stroke-linejoin: miter; stroke-linecap: square"/>
   </g>
   <g id="patch_4">
    <path d="M 137.646603 244.078125 
L 137.646603 22.318125 
" style="fill: none; stroke: #000000; stroke-width: 0.8; stroke-linejoin: miter; stroke-linecap: square"/>
   </g>
   <g id="patch_5">
    <path d="M 40.603125 244.078125 
L 137.646603 244.078125 
" style="fill: none; stroke: #000000; stroke-width: 0.8; stroke-linejoin: miter; stroke-linecap: square"/>
   </g>
   <g id="patch_6">
    <path d="M 40.603125 22.318125 
L 137.646603 22.318125 
" style="fill: none; stroke: #000000; stroke-width: 0.8; stroke-linejoin: miter; stroke-linecap: square"/>
   </g>
   <g id="text_11">
    <!-- Real -->
    <g transform="translate(76.190177 16.318125) scale(0.12 -0.12)">
     <defs>
      <path id="DejaVuSans-52" d="M 2841 2188 
Q 3044 2119 3236 1894 
Q 3428 1669 3622 1275 
L 4263 0 
L 3584 0 
L 2988 1197 
Q 2756 1666 2539 1819 
Q 2322 1972 1947 1972 
L 1259 1972 
L 1259 0 
L 628 0 
L 628 4666 
L 2053 4666 
Q 2853 4666 3247 4331 
Q 3641 3997 3641 3322 
Q 3641 2881 3436 2590 
Q 3231 2300 2841 2188 
z
M 1259 4147 
L 1259 2491 
L 2053 2491 
Q 2509 2491 2742 2702 
Q 2975 2913 2975 3322 
Q 2975 3731 2742 3939 
Q 2509 4147 2053 4147 
L 1259 4147 
z
" transform="scale(0.015625)"/>
      <path id="DejaVuSans-65" d="M 3597 1894 
L 3597 1613 
L 953 1613 
Q 991 1019 1311 708 
Q 1631 397 2203 397 
Q 2534 397 2845 478 
Q 3156 559 3463 722 
L 3463 178 
Q 3153 47 2828 -22 
Q 2503 -91 2169 -91 
Q 1331 -91 842 396 
Q 353 884 353 1716 
Q 353 2575 817 3079 
Q 1281 3584 2069 3584 
Q 2775 3584 3186 3129 
Q 3597 2675 3597 1894 
z
M 3022 2063 
Q 3016 2534 2758 2815 
Q 2500 3097 2075 3097 
Q 1594 3097 1305 2825 
Q 1016 2553 972 2059 
L 3022 2063 
z
" transform="scale(0.015625)"/>
      <path id="DejaVuSans-61" d="M 2194 1759 
Q 1497 1759 1228 1600 
Q 959 1441 959 1056 
Q 959 750 1161 570 
Q 1363 391 1709 391 
Q 2188 391 2477 730 
Q 2766 1069 2766 1631 
L 2766 1759 
L 2194 1759 
z
M 3341 1997 
L 3341 0 
L 2766 0 
L 2766 531 
Q 2569 213 2275 61 
Q 1981 -91 1556 -91 
Q 1019 -91 701 211 
Q 384 513 384 1019 
Q 384 1609 779 1909 
Q 1175 2209 1959 2209 
L 2766 2209 
L 2766 2266 
Q 2766 2663 2505 2880 
Q 2244 3097 1772 3097 
Q 1472 3097 1187 3025 
Q 903 2953 641 2809 
L 641 3341 
Q 956 3463 1253 3523 
Q 1550 3584 1831 3584 
Q 2591 3584 2966 3190 
Q 3341 2797 3341 1997 
z
" transform="scale(0.015625)"/>
      <path id="DejaVuSans-6c" d="M 603 4863 
L 1178 4863 
L 1178 0 
L 603 0 
L 603 4863 
z
" transform="scale(0.015625)"/>
     </defs>
     <use xlink:href="#DejaVuSans-52"/>
     <use xlink:href="#DejaVuSans-65" transform="translate(64.982422 0)"/>
     <use xlink:href="#DejaVuSans-61" transform="translate(126.505859 0)"/>
     <use xlink:href="#DejaVuSans-6c" transform="translate(187.785156 0)"/>
    </g>
   </g>
   <g id="legend_1">
    <g id="patch_7">
     <path d="M 48.784103 239.078125 
L 130.646603 239.078125 
Q 132.646603 239.078125 132.646603 237.078125 
L 132.646603 208.721875 
Q 132.646603 206.721875 130.646603 206.721875 
L 48.784103 206.721875 
Q 46.784103 206.721875 46.784103 208.721875 
L 46.784103 237.078125 
Q 46.784103 239.078125 48.784103 239.078125 
z
" style="fill: #ffffff; opacity: 0.8; stroke: #cccccc; stroke-linejoin: miter"/>
    </g>
    <g id="line2d_21">
     <path d="M 50.784103 214.820312 
L 60.784103 214.820312 
L 70.784103 214.820312 
" style="fill: none; stroke: #1f77b4; stroke-width: 1.5; stroke-linecap: square"/>
    </g>
    <g id="text_12">
     <!-- analytical -->
     <g transform="translate(78.784103 218.320312) scale(0.1 -0.1)">
      <defs>
       <path id="DejaVuSans-6e" d="M 3513 2113 
L 3513 0 
L 2938 0 
L 2938 2094 
Q 2938 2591 2744 2837 
Q 2550 3084 2163 3084 
Q 1697 3084 1428 2787 
Q 1159 2491 1159 1978 
L 1159 0 
L 581 0 
L 581 3500 
L 1159 3500 
L 1159 2956 
Q 1366 3272 1645 3428 
Q 1925 3584 2291 3584 
Q 2894 3584 3203 3211 
Q 3513 2838 3513 2113 
z
" transform="scale(0.015625)"/>
       <path id="DejaVuSans-79" d="M 2059 -325 
Q 1816 -950 1584 -1140 
Q 1353 -1331 966 -1331 
L 506 -1331 
L 506 -850 
L 844 -850 
Q 1081 -850 1212 -737 
Q 1344 -625 1503 -206 
L 1606 56 
L 191 3500 
L 800 3500 
L 1894 763 
L 2988 3500 
L 3597 3500 
L 2059 -325 
z
" transform="scale(0.015625)"/>
       <path id="DejaVuSans-74" d="M 1172 4494 
L 1172 3500 
L 2356 3500 
L 2356 3053 
L 1172 3053 
L 1172 1153 
Q 1172 725 1289 603 
Q 1406 481 1766 481 
L 2356 481 
L 2356 0 
L 1766 0 
Q 1100 0 847 248 
Q 594 497 594 1153 
L 594 3053 
L 172 3053 
L 172 3500 
L 594 3500 
L 594 4494 
L 1172 4494 
z
" transform="scale(0.015625)"/>
       <path id="DejaVuSans-69" d="M 603 3500 
L 1178 3500 
L 1178 0 
L 603 0 
L 603 3500 
z
M 603 4863 
L 1178 4863 
L 1178 4134 
L 603 4134 
L 603 4863 
z
" transform="scale(0.015625)"/>
       <path id="DejaVuSans-63" d="M 3122 3366 
L 3122 2828 
Q 2878 2963 2633 3030 
Q 2388 3097 2138 3097 
Q 1578 3097 1268 2742 
Q 959 2388 959 1747 
Q 959 1106 1268 751 
Q 1578 397 2138 397 
Q 2388 397 2633 464 
Q 2878 531 3122 666 
L 3122 134 
Q 2881 22 2623 -34 
Q 2366 -91 2075 -91 
Q 1284 -91 818 406 
Q 353 903 353 1747 
Q 353 2603 823 3093 
Q 1294 3584 2113 3584 
Q 2378 3584 2631 3529 
Q 2884 3475 3122 3366 
z
" transform="scale(0.015625)"/>
      </defs>
      <use xlink:href="#DejaVuSans-61"/>
      <use xlink:href="#DejaVuSans-6e" transform="translate(61.279297 0)"/>
      <use xlink:href="#DejaVuSans-61" transform="translate(124.658203 0)"/>
      <use xlink:href="#DejaVuSans-6c" transform="translate(185.9375 0)"/>
      <use xlink:href="#DejaVuSans-79" transform="translate(213.720703 0)"/>
      <use xlink:href="#DejaVuSans-74" transform="translate(272.900391 0)"/>
      <use xlink:href="#DejaVuSans-69" transform="translate(312.109375 0)"/>
      <use xlink:href="#DejaVuSans-63" transform="translate(339.892578 0)"/>
      <use xlink:href="#DejaVuSans-61" transform="translate(394.873047 0)"/>
      <use xlink:href="#DejaVuSans-6c" transform="translate(456.152344 0)"/>
     </g>
    </g>
    <g id="line2d_22">
     <path d="M 50.784103 229.498438 
L 60.784103 229.498438 
L 70.784103 229.498438 
" style="fill: none; stroke-dasharray: 5.55,2.4; stroke-dashoffset: 0; stroke: #ff7f0e; stroke-width: 1.5"/>
    </g>
    <g id="text_13">
     <!-- numerical -->
     <g transform="translate(78.784103 232.998438) scale(0.1 -0.1)">
      <defs>
       <path id="DejaVuSans-75" d="M 544 1381 
L 544 3500 
L 1119 3500 
L 1119 1403 
Q 1119 906 1312 657 
Q 1506 409 1894 409 
Q 2359 409 2629 706 
Q 2900 1003 2900 1516 
L 2900 3500 
L 3475 3500 
L 3475 0 
L 2900 0 
L 2900 538 
Q 2691 219 2414 64 
Q 2138 -91 1772 -91 
Q 1169 -91 856 284 
Q 544 659 544 1381 
z
M 1991 3584 
L 1991 3584 
z
" transform="scale(0.015625)"/>
       <path id="DejaVuSans-72" d="M 2631 2963 
Q 2534 3019 2420 3045 
Q 2306 3072 2169 3072 
Q 1681 3072 1420 2755 
Q 1159 2438 1159 1844 
L 1159 0 
L 581 0 
L 581 3500 
L 1159 3500 
L 1159 2956 
Q 1341 3275 1631 3429 
Q 1922 3584 2338 3584 
Q 2397 3584 2469 3576 
Q 2541 3569 2628 3553 
L 2631 2963 
z
" transform="scale(0.015625)"/>
      </defs>
      <use xlink:href="#DejaVuSans-6e"/>
      <use xlink:href="#DejaVuSans-75" transform="translate(63.378906 0)"/>
      <use xlink:href="#DejaVuSans-6d" transform="translate(126.757812 0)"/>
      <use xlink:href="#DejaVuSans-65" transform="translate(224.169922 0)"/>
      <use xlink:href="#DejaVuSans-72" transform="translate(285.693359 0)"/>
      <use xlink:href="#DejaVuSans-69" transform="translate(326.806641 0)"/>
      <use xlink:href="#DejaVuSans-63" transform="translate(354.589844 0)"/>
      <use xlink:href="#DejaVuSans-61" transform="translate(409.570312 0)"/>
      <use xlink:href="#DejaVuSans-6c" transform="translate(470.849609 0)"/>
     </g>
    </g>
   </g>
  </g>
  <g id="axes_2">
   <g id="patch_8">
    <path d="M 157.055299 244.078125 
L 254.098777 244.078125 
L 254.098777 22.318125 
L 157.055299 22.318125 
z
" style="fill: #ffffff"/>
   </g>
   <g id="matplotlib.axis_3">
    <g id="xtick_4">
     <g id="line2d_23">
      <path d="M 194.714137 244.078125 
L 194.714137 22.318125 
" clip-path="url(#p92787ac0d5)" style="fill: none; stroke: #b0b0b0; stroke-width: 0.8; stroke-linecap: square"/>
     </g>
     <g id="line2d_24">
      <g>
       <use xlink:href="#m9cf80f6b44" x="194.714137" y="244.078125" style="stroke: #000000; stroke-width: 0.8"/>
      </g>
     </g>
     <g id="text_14">
      <!-- −0.2 -->
      <g transform="translate(182.572731 258.676562) scale(0.1 -0.1)">
       <defs>
        <path id="DejaVuSans-2212" d="M 678 2272 
L 4684 2272 
L 4684 1741 
L 678 1741 
L 678 2272 
z
" transform="scale(0.015625)"/>
       </defs>
       <use xlink:href="#DejaVuSans-2212"/>
       <use xlink:href="#DejaVuSans-30" transform="translate(83.789062 0)"/>
       <use xlink:href="#DejaVuSans-2e" transform="translate(147.412109 0)"/>
       <use xlink:href="#DejaVuSans-32" transform="translate(179.199219 0)"/>
      </g>
     </g>
    </g>
    <g id="xtick_5">
     <g id="line2d_25">
      <path d="M 242.361846 244.078125 
L 242.361846 22.318125 
" clip-path="url(#p92787ac0d5)" style="fill: none; stroke: #b0b0b0; stroke-width: 0.8; stroke-linecap: square"/>
     </g>
     <g id="line2d_26">
      <g>
       <use xlink:href="#m9cf80f6b44" x="242.361846" y="244.078125" style="stroke: #000000; stroke-width: 0.8"/>
      </g>
     </g>
     <g id="text_15">
      <!-- 0.0 -->
      <g transform="translate(234.410284 258.676562) scale(0.1 -0.1)">
       <use xlink:href="#DejaVuSans-30"/>
       <use xlink:href="#DejaVuSans-2e" transform="translate(63.623047 0)"/>
       <use xlink:href="#DejaVuSans-30" transform="translate(95.410156 0)"/>
      </g>
     </g>
    </g>
   </g>
   <g id="matplotlib.axis_4">
    <g id="ytick_7">
     <g id="line2d_27">
      <path d="M 157.055299 32.398125 
L 254.098777 32.398125 
" clip-path="url(#p92787ac0d5)" style="fill: none; stroke: #b0b0b0; stroke-width: 0.8; stroke-linecap: square"/>
     </g>
     <g id="line2d_28">
      <g>
       <use xlink:href="#m32d2fed336" x="157.055299" y="32.398125" style="stroke: #000000; stroke-width: 0.8"/>
      </g>
     </g>
    </g>
    <g id="ytick_8">
     <g id="line2d_29">
      <path d="M 157.055299 72.718125 
L 254.098777 72.718125 
" clip-path="url(#p92787ac0d5)" style="fill: none; stroke: #b0b0b0; stroke-width: 0.8; stroke-linecap: square"/>
     </g>
     <g id="line2d_30">
      <g>
       <use xlink:href="#m32d2fed336" x="157.055299" y="72.718125" style="stroke: #000000; stroke-width: 0.8"/>
      </g>
     </g>
    </g>
    <g id="ytick_9">
     <g id="line2d_31">
      <path d="M 157.055299 113.038125 
L 254.098777 113.038125 
" clip-path="url(#p92787ac0d5)" style="fill: none; stroke: #b0b0b0; stroke-width: 0.8; stroke-linecap: square"/>
     </g>
     <g id="line2d_32">
      <g>
       <use xlink:href="#m32d2fed336" x="157.055299" y="113.038125" style="stroke: #000000; stroke-width: 0.8"/>
      </g>
     </g>
    </g>
    <g id="ytick_10">
     <g id="line2d_33">
      <path d="M 157.055299 153.358125 
L 254.098777 153.358125 
" clip-path="url(#p92787ac0d5)" style="fill: none; stroke: #b0b0b0; stroke-width: 0.8; stroke-linecap: square"/>
     </g>
     <g id="line2d_34">
      <g>
       <use xlink:href="#m32d2fed336" x="157.055299" y="153.358125" style="stroke: #000000; stroke-width: 0.8"/>
      </g>
     </g>
    </g>
    <g id="ytick_11">
     <g id="line2d_35">
      <path d="M 157.055299 193.678125 
L 254.098777 193.678125 
" clip-path="url(#p92787ac0d5)" style="fill: none; stroke: #b0b0b0; stroke-width: 0.8; stroke-linecap: square"/>
     </g>
     <g id="line2d_36">
      <g>
       <use xlink:href="#m32d2fed336" x="157.055299" y="193.678125" style="stroke: #000000; stroke-width: 0.8"/>
      </g>
     </g>
    </g>
    <g id="ytick_12">
     <g id="line2d_37">
      <path d="M 157.055299 233.998125 
L 254.098777 233.998125 
" clip-path="url(#p92787ac0d5)" style="fill: none; stroke: #b0b0b0; stroke-width: 0.8; stroke-linecap: square"/>
     </g>
     <g id="line2d_38">
      <g>
       <use xlink:href="#m32d2fed336" x="157.055299" y="233.998125" style="stroke: #000000; stroke-width: 0.8"/>
      </g>
     </g>
    </g>
   </g>
   <g id="line2d_39">
    <path d="M 242.361846 233.998125 
L 242.425073 229.966125 
L 242.504101 225.934125 
L 242.600616 221.902125 
L 242.716157 217.870125 
L 242.852024 213.838125 
L 243.009157 209.806125 
L 243.188007 205.774125 
L 243.388374 201.742125 
L 243.609231 197.710125 
L 243.848522 193.678125 
L 244.102945 189.646125 
L 244.367713 185.614125 
L 244.6363 181.582125 
L 244.900179 177.550125 
L 245.148554 173.518125 
L 245.368101 169.486125 
L 245.54272 165.454125 
L 245.65332 161.422125 
L 245.677649 157.390125 
L 245.590185 153.358125 
L 245.362117 149.326125 
L 244.961439 145.294125 
L 244.353178 141.262125 
L 243.499806 137.230125 
L 242.361846 133.198125 
L 240.898736 129.166125 
L 239.069967 125.134125 
L 236.836549 121.102125 
L 234.162845 117.070125 
L 231.018802 113.038125 
L 227.382621 109.006125 
L 223.243903 104.974125 
L 218.607271 100.942125 
L 213.496502 96.910125 
L 207.959145 92.878125 
L 202.071613 88.846125 
L 195.944694 84.814125 
L 189.729401 80.782125 
L 183.623064 76.750125 
L 177.875494 72.718125 
L 172.795032 68.686125 
L 168.754231 64.654125 
L 166.194863 60.622125 
L 165.631874 56.590125 
L 167.655853 52.558125 
L 172.933496 48.526125 
L 182.205472 44.494125 
L 196.281043 40.462125 
L 216.028672 36.430125 
L 242.361846 32.398125 
" clip-path="url(#p92787ac0d5)" style="fill: none; stroke: #1f77b4; stroke-width: 1.5; stroke-linecap: square"/>
   </g>
   <g id="line2d_40">
    <path d="M 242.417816 233.998125 
L 242.417816 229.966125 
L 242.447926 225.934125 
L 242.508078 221.902125 
L 242.598112 217.870125 
L 242.71771 213.838125 
L 242.866309 209.806125 
L 243.042981 205.774125 
L 243.246287 201.742125 
L 243.474098 197.710125 
L 243.723396 193.678125 
L 243.990045 189.646125 
L 244.268546 185.614125 
L 244.551772 181.582125 
L 244.830694 177.550125 
L 245.094097 173.518125 
L 245.328311 169.486125 
L 245.516949 165.454125 
L 245.640683 161.422125 
L 245.677055 157.390125 
L 245.600371 153.358125 
L 245.381663 149.326125 
L 244.988783 145.294125 
L 244.386628 141.262125 
L 243.537543 137.230125 
L 242.401938 133.198125 
L 240.939144 129.166125 
L 239.108561 125.134125 
L 236.871131 121.102125 
L 234.191175 117.070125 
L 231.038638 113.038125 
L 227.391773 109.006125 
L 223.240292 104.974125 
L 218.589004 100.942125 
L 213.461958 96.910125 
L 207.907075 92.878125 
L 202.001242 88.846125 
L 195.85583 84.814125 
L 189.622547 80.782125 
L 183.499517 76.750125 
L 177.737433 72.718125 
L 172.645577 68.686125 
L 168.59747 64.654125 
L 166.035823 60.622125 
L 165.476427 56.590125 
L 167.510541 52.558125 
L 172.805247 48.526125 
L 182.101205 44.494125 
L 196.207123 40.462125 
L 215.990215 36.430125 
L 242.361846 32.398125 
" clip-path="url(#p92787ac0d5)" style="fill: none; stroke-dasharray: 5.55,2.4; stroke-dashoffset: 0; stroke: #ff7f0e; stroke-width: 1.5"/>
   </g>
   <g id="LineCollection_2">
    <path d="M 161.466366 64.483762 
L 249.68771 64.483762 
" clip-path="url(#p92787ac0d5)" style="fill: none; stroke-dasharray: 5.55,2.4; stroke-dashoffset: 0; stroke: #1f77b4; stroke-width: 1.5"/>
   </g>
   <g id="patch_9">
    <path d="M 157.055299 244.078125 
L 157.055299 22.318125 
" style="fill: none; stroke: #000000; stroke-width: 0.8; stroke-linejoin: miter; stroke-linecap: square"/>
   </g>
   <g id="patch_10">
    <path d="M 254.098777 244.078125 
L 254.098777 22.318125 
" style="fill: none; stroke: #000000; stroke-width: 0.8; stroke-linejoin: miter; stroke-linecap: square"/>
   </g>
   <g id="patch_11">
    <path d="M 157.055299 244.078125 
L 254.098777 244.078125 
" style="fill: none; stroke: #000000; stroke-width: 0.8; stroke-linejoin: miter; stroke-linecap: square"/>
   </g>
   <g id="patch_12">
    <path d="M 157.055299 22.318125 
L 254.098777 22.318125 
" style="fill: none; stroke: #000000; stroke-width: 0.8; stroke-linejoin: miter; stroke-linecap: square"/>
   </g>
   <g id="text_16">
    <!-- Imag -->
    <g transform="translate(190.476726 16.318125) scale(0.12 -0.12)">
     <defs>
      <path id="DejaVuSans-49" d="M 628 4666 
L 1259 4666 
L 1259 0 
L 628 0 
L 628 4666 
z
" transform="scale(0.015625)"/>
      <path id="DejaVuSans-67" d="M 2906 1791 
Q 2906 2416 2648 2759 
Q 2391 3103 1925 3103 
Q 1463 3103 1205 2759 
Q 947 2416 947 1791 
Q 947 1169 1205 825 
Q 1463 481 1925 481 
Q 2391 481 2648 825 
Q 2906 1169 2906 1791 
z
M 3481 434 
Q 3481 -459 3084 -895 
Q 2688 -1331 1869 -1331 
Q 1566 -1331 1297 -1286 
Q 1028 -1241 775 -1147 
L 775 -588 
Q 1028 -725 1275 -790 
Q 1522 -856 1778 -856 
Q 2344 -856 2625 -561 
Q 2906 -266 2906 331 
L 2906 616 
Q 2728 306 2450 153 
Q 2172 0 1784 0 
Q 1141 0 747 490 
Q 353 981 353 1791 
Q 353 2603 747 3093 
Q 1141 3584 1784 3584 
Q 2172 3584 2450 3431 
Q 2728 3278 2906 2969 
L 2906 3500 
L 3481 3500 
L 3481 434 
z
" transform="scale(0.015625)"/>
     </defs>
     <use xlink:href="#DejaVuSans-49"/>
     <use xlink:href="#DejaVuSans-6d" transform="translate(29.492188 0)"/>
     <use xlink:href="#DejaVuSans-61" transform="translate(126.904297 0)"/>
     <use xlink:href="#DejaVuSans-67" transform="translate(188.183594 0)"/>
    </g>
   </g>
  </g>
  <g id="axes_3">
   <g id="patch_13">
    <path d="M 273.507473 244.078125 
L 370.550951 244.078125 
L 370.550951 22.318125 
L 273.507473 22.318125 
z
" style="fill: #ffffff"/>
   </g>
   <g id="matplotlib.axis_5">
    <g id="xtick_6">
     <g id="line2d_41">
      <path d="M 281.77855 244.078125 
L 281.77855 22.318125 
" clip-path="url(#p8835fe87fd)" style="fill: none; stroke: #b0b0b0; stroke-width: 0.8; stroke-linecap: square"/>
     </g>
     <g id="line2d_42">
      <g>
       <use xlink:href="#m9cf80f6b44" x="281.77855" y="244.078125" style="stroke: #000000; stroke-width: 0.8"/>
      </g>
     </g>
     <g id="text_17">
      <!-- 0.0 -->
      <g transform="translate(273.826987 258.676562) scale(0.1 -0.1)">
       <use xlink:href="#DejaVuSans-30"/>
       <use xlink:href="#DejaVuSans-2e" transform="translate(63.623047 0)"/>
       <use xlink:href="#DejaVuSans-30" transform="translate(95.410156 0)"/>
      </g>
     </g>
    </g>
    <g id="xtick_7">
     <g id="line2d_43">
      <path d="M 321.954186 244.078125 
L 321.954186 22.318125 
" clip-path="url(#p8835fe87fd)" style="fill: none; stroke: #b0b0b0; stroke-width: 0.8; stroke-linecap: square"/>
     </g>
     <g id="line2d_44">
      <g>
       <use xlink:href="#m9cf80f6b44" x="321.954186" y="244.078125" style="stroke: #000000; stroke-width: 0.8"/>
      </g>
     </g>
     <g id="text_18">
      <!-- 0.5 -->
      <g transform="translate(314.002624 258.676562) scale(0.1 -0.1)">
       <use xlink:href="#DejaVuSans-30"/>
       <use xlink:href="#DejaVuSans-2e" transform="translate(63.623047 0)"/>
       <use xlink:href="#DejaVuSans-35" transform="translate(95.410156 0)"/>
      </g>
     </g>
    </g>
    <g id="xtick_8">
     <g id="line2d_45">
      <path d="M 362.129823 244.078125 
L 362.129823 22.318125 
" clip-path="url(#p8835fe87fd)" style="fill: none; stroke: #b0b0b0; stroke-width: 0.8; stroke-linecap: square"/>
     </g>
     <g id="line2d_46">
      <g>
       <use xlink:href="#m9cf80f6b44" x="362.129823" y="244.078125" style="stroke: #000000; stroke-width: 0.8"/>
      </g>
     </g>
     <g id="text_19">
      <!-- 1.0 -->
      <g transform="translate(354.17826 258.676562) scale(0.1 -0.1)">
       <use xlink:href="#DejaVuSans-31"/>
       <use xlink:href="#DejaVuSans-2e" transform="translate(63.623047 0)"/>
       <use xlink:href="#DejaVuSans-30" transform="translate(95.410156 0)"/>
      </g>
     </g>
    </g>
   </g>
   <g id="matplotlib.axis_6">
    <g id="ytick_13">
     <g id="line2d_47">
      <path d="M 273.507473 32.398125 
L 370.550951 32.398125 
" clip-path="url(#p8835fe87fd)" style="fill: none; stroke: #b0b0b0; stroke-width: 0.8; stroke-linecap: square"/>
     </g>
     <g id="line2d_48">
      <g>
       <use xlink:href="#m32d2fed336" x="273.507473" y="32.398125" style="stroke: #000000; stroke-width: 0.8"/>
      </g>
     </g>
    </g>
    <g id="ytick_14">
     <g id="line2d_49">
      <path d="M 273.507473 72.718125 
L 370.550951 72.718125 
" clip-path="url(#p8835fe87fd)" style="fill: none; stroke: #b0b0b0; stroke-width: 0.8; stroke-linecap: square"/>
     </g>
     <g id="line2d_50">
      <g>
       <use xlink:href="#m32d2fed336" x="273.507473" y="72.718125" style="stroke: #000000; stroke-width: 0.8"/>
      </g>
     </g>
    </g>
    <g id="ytick_15">
     <g id="line2d_51">
      <path d="M 273.507473 113.038125 
L 370.550951 113.038125 
" clip-path="url(#p8835fe87fd)" style="fill: none; stroke: #b0b0b0; stroke-width: 0.8; stroke-linecap: square"/>
     </g>
     <g id="line2d_52">
      <g>
       <use xlink:href="#m32d2fed336" x="273.507473" y="113.038125" style="stroke: #000000; stroke-width: 0.8"/>
      </g>
     </g>
    </g>
    <g id="ytick_16">
     <g id="line2d_53">
      <path d="M 273.507473 153.358125 
L 370.550951 153.358125 
" clip-path="url(#p8835fe87fd)" style="fill: none; stroke: #b0b0b0; stroke-width: 0.8; stroke-linecap: square"/>
     </g>
     <g id="line2d_54">
      <g>
       <use xlink:href="#m32d2fed336" x="273.507473" y="153.358125" style="stroke: #000000; stroke-width: 0.8"/>
      </g>
     </g>
    </g>
    <g id="ytick_17">
     <g id="line2d_55">
      <path d="M 273.507473 193.678125 
L 370.550951 193.678125 
" clip-path="url(#p8835fe87fd)" style="fill: none; stroke: #b0b0b0; stroke-width: 0.8; stroke-linecap: square"/>
     </g>
     <g id="line2d_56">
      <g>
       <use xlink:href="#m32d2fed336" x="273.507473" y="193.678125" style="stroke: #000000; stroke-width: 0.8"/>
      </g>
     </g>
    </g>
    <g id="ytick_18">
     <g id="line2d_57">
      <path d="M 273.507473 233.998125 
L 370.550951 233.998125 
" clip-path="url(#p8835fe87fd)" style="fill: none; stroke: #b0b0b0; stroke-width: 0.8; stroke-linecap: square"/>
     </g>
     <g id="line2d_58">
      <g>
       <use xlink:href="#m32d2fed336" x="273.507473" y="233.998125" style="stroke: #000000; stroke-width: 0.8"/>
      </g>
     </g>
    </g>
   </g>
   <g id="line2d_59">
    <path d="M 281.928601 233.998125 
L 281.948693 229.966125 
L 281.971475 225.934125 
L 281.997308 221.902125 
L 282.0266 217.870125 
L 282.059814 213.838125 
L 282.097476 209.806125 
L 282.140181 205.774125 
L 282.188603 201.742125 
L 282.24351 197.710125 
L 282.305768 193.678125 
L 282.376363 189.646125 
L 282.456411 185.614125 
L 282.547177 181.582125 
L 282.650097 177.550125 
L 282.766798 173.518125 
L 282.899125 169.486125 
L 283.049171 165.454125 
L 283.219308 161.422125 
L 283.412226 157.390125 
L 283.630977 153.358125 
L 283.879018 149.326125 
L 284.160273 145.294125 
L 284.479187 141.262125 
L 284.840805 137.230125 
L 285.250843 133.198125 
L 285.715786 129.166125 
L 286.242985 125.134125 
L 286.840776 121.102125 
L 287.518612 117.070125 
L 288.287211 113.038125 
L 289.158726 109.006125 
L 290.146937 104.974125 
L 291.267471 100.942125 
L 292.538045 96.910125 
L 293.97875 92.878125 
L 295.612366 88.846125 
L 297.464725 84.814125 
L 299.565116 80.782125 
L 301.946751 76.750125 
L 304.647289 72.718125 
L 307.709431 68.686125 
L 311.181596 64.654125 
L 315.118687 60.622125 
L 319.582957 56.590125 
L 324.644997 52.558125 
L 330.384848 48.526125 
L 336.893269 44.494125 
L 344.273173 40.462125 
L 352.641252 36.430125 
L 362.129823 32.398125 
" clip-path="url(#p8835fe87fd)" style="fill: none; stroke: #1f77b4; stroke-width: 1.5; stroke-linecap: square"/>
   </g>
   <g id="line2d_60">
    <path d="M 282.100746 233.998125 
L 282.100746 229.966125 
L 282.100854 225.934125 
L 282.101709 221.902125 
L 282.104581 217.870125 
L 282.111294 213.838125 
L 282.124048 209.806125 
L 282.145105 205.774125 
L 282.176408 201.742125 
L 282.219329 197.710125 
L 282.274649 193.678125 
L 282.342751 189.646125 
L 282.423877 185.614125 
L 282.518349 181.582125 
L 282.626711 177.550125 
L 282.749814 173.518125 
L 282.888866 169.486125 
L 283.045469 165.454125 
L 283.221636 161.422125 
L 283.419826 157.390125 
L 283.642965 153.358125 
L 283.894483 149.326125 
L 284.178343 145.294125 
L 284.499091 141.262125 
L 284.861905 137.230125 
L 285.272657 133.198125 
L 285.737989 129.166125 
L 286.265406 125.134125 
L 286.863378 121.102125 
L 287.541469 117.070125 
L 288.310482 113.038125 
L 289.182627 109.006125 
L 290.171713 104.974125 
L 291.293371 100.942125 
L 292.565298 96.910125 
L 294.007545 92.878125 
L 295.642838 88.846125 
L 297.496936 84.814125 
L 299.599044 80.782125 
L 301.98228 76.750125 
L 304.684194 72.718125 
L 307.747366 68.686125 
L 311.220078 64.654125 
L 315.157076 60.622125 
L 319.620434 56.590125 
L 324.680531 52.558125 
L 330.417164 48.526125 
L 336.9208 44.494125 
L 344.294008 40.462125 
L 352.653072 36.430125 
L 362.129823 32.398125 
" clip-path="url(#p8835fe87fd)" style="fill: none; stroke-dasharray: 5.55,2.4; stroke-dashoffset: 0; stroke: #ff7f0e; stroke-width: 1.5"/>
   </g>
   <g id="LineCollection_3">
    <path d="M 277.91854 64.483762 
L 366.139884 64.483762 
" clip-path="url(#p8835fe87fd)" style="fill: none; stroke-dasharray: 5.55,2.4; stroke-dashoffset: 0; stroke: #1f77b4; stroke-width: 1.5"/>
   </g>
   <g id="patch_14">
    <path d="M 273.507473 244.078125 
L 273.507473 22.318125 
" style="fill: none; stroke: #000000; stroke-width: 0.8; stroke-linejoin: miter; stroke-linecap: square"/>
   </g>
   <g id="patch_15">
    <path d="M 370.550951 244.078125 
L 370.550951 22.318125 
" style="fill: none; stroke: #000000; stroke-width: 0.8; stroke-linejoin: miter; stroke-linecap: square"/>
   </g>
   <g id="patch_16">
    <path d="M 273.507473 244.078125 
L 370.550951 244.078125 
" style="fill: none; stroke: #000000; stroke-width: 0.8; stroke-linejoin: miter; stroke-linecap: square"/>
   </g>
   <g id="patch_17">
    <path d="M 273.507473 22.318125 
L 370.550951 22.318125 
" style="fill: none; stroke: #000000; stroke-width: 0.8; stroke-linejoin: miter; stroke-linecap: square"/>
   </g>
   <g id="text_20">
    <!-- Abs -->
    <g transform="translate(310.990149 16.318125) scale(0.12 -0.12)">
     <defs>
      <path id="DejaVuSans-41" d="M 2188 4044 
L 1331 1722 
L 3047 1722 
L 2188 4044 
z
M 1831 4666 
L 2547 4666 
L 4325 0 
L 3669 0 
L 3244 1197 
L 1141 1197 
L 716 0 
L 50 0 
L 1831 4666 
z
" transform="scale(0.015625)"/>
      <path id="DejaVuSans-62" d="M 3116 1747 
Q 3116 2381 2855 2742 
Q 2594 3103 2138 3103 
Q 1681 3103 1420 2742 
Q 1159 2381 1159 1747 
Q 1159 1113 1420 752 
Q 1681 391 2138 391 
Q 2594 391 2855 752 
Q 3116 1113 3116 1747 
z
M 1159 2969 
Q 1341 3281 1617 3432 
Q 1894 3584 2278 3584 
Q 2916 3584 3314 3078 
Q 3713 2572 3713 1747 
Q 3713 922 3314 415 
Q 2916 -91 2278 -91 
Q 1894 -91 1617 61 
Q 1341 213 1159 525 
L 1159 0 
L 581 0 
L 581 4863 
L 1159 4863 
L 1159 2969 
z
" transform="scale(0.015625)"/>
      <path id="DejaVuSans-73" d="M 2834 3397 
L 2834 2853 
Q 2591 2978 2328 3040 
Q 2066 3103 1784 3103 
Q 1356 3103 1142 2972 
Q 928 2841 928 2578 
Q 928 2378 1081 2264 
Q 1234 2150 1697 2047 
L 1894 2003 
Q 2506 1872 2764 1633 
Q 3022 1394 3022 966 
Q 3022 478 2636 193 
Q 2250 -91 1575 -91 
Q 1294 -91 989 -36 
Q 684 19 347 128 
L 347 722 
Q 666 556 975 473 
Q 1284 391 1588 391 
Q 1994 391 2212 530 
Q 2431 669 2431 922 
Q 2431 1156 2273 1281 
Q 2116 1406 1581 1522 
L 1381 1569 
Q 847 1681 609 1914 
Q 372 2147 372 2553 
Q 372 3047 722 3315 
Q 1072 3584 1716 3584 
Q 2034 3584 2315 3537 
Q 2597 3491 2834 3397 
z
" transform="scale(0.015625)"/>
     </defs>
     <use xlink:href="#DejaVuSans-41"/>
     <use xlink:href="#DejaVuSans-62" transform="translate(68.408203 0)"/>
     <use xlink:href="#DejaVuSans-73" transform="translate(131.884766 0)"/>
    </g>
   </g>
  </g>
  <g id="axes_4">
   <g id="patch_18">
    <path d="M 389.959647 244.078125 
L 487.003125 244.078125 
L 487.003125 22.318125 
L 389.959647 22.318125 
z
" style="fill: #ffffff"/>
   </g>
   <g id="matplotlib.axis_7">
    <g id="xtick_9">
     <g id="line2d_61">
      <path d="M 398.380775 244.078125 
L 398.380775 22.318125 
" clip-path="url(#p3ec5dc899b)" style="fill: none; stroke: #b0b0b0; stroke-width: 0.8; stroke-linecap: square"/>
     </g>
     <g id="line2d_62">
      <g>
       <use xlink:href="#m9cf80f6b44" x="398.380775" y="244.078125" style="stroke: #000000; stroke-width: 0.8"/>
      </g>
     </g>
     <g id="text_21">
      <!-- 0 -->
      <g transform="translate(395.199525 258.676562) scale(0.1 -0.1)">
       <use xlink:href="#DejaVuSans-30"/>
      </g>
     </g>
    </g>
    <g id="xtick_10">
     <g id="line2d_63">
      <path d="M 442.937009 244.078125 
L 442.937009 22.318125 
" clip-path="url(#p3ec5dc899b)" style="fill: none; stroke: #b0b0b0; stroke-width: 0.8; stroke-linecap: square"/>
     </g>
     <g id="line2d_64">
      <g>
       <use xlink:href="#m9cf80f6b44" x="442.937009" y="244.078125" style="stroke: #000000; stroke-width: 0.8"/>
      </g>
     </g>
     <g id="text_22">
      <!-- 200 -->
      <g transform="translate(433.393259 258.676562) scale(0.1 -0.1)">
       <use xlink:href="#DejaVuSans-32"/>
       <use xlink:href="#DejaVuSans-30" transform="translate(63.623047 0)"/>
       <use xlink:href="#DejaVuSans-30" transform="translate(127.246094 0)"/>
      </g>
     </g>
    </g>
   </g>
   <g id="matplotlib.axis_8">
    <g id="ytick_19">
     <g id="line2d_65">
      <path d="M 389.959647 32.398125 
L 487.003125 32.398125 
" clip-path="url(#p3ec5dc899b)" style="fill: none; stroke: #b0b0b0; stroke-width: 0.8; stroke-linecap: square"/>
     </g>
     <g id="line2d_66">
      <g>
       <use xlink:href="#m32d2fed336" x="389.959647" y="32.398125" style="stroke: #000000; stroke-width: 0.8"/>
      </g>
     </g>
    </g>
    <g id="ytick_20">
     <g id="line2d_67">
      <path d="M 389.959647 72.718125 
L 487.003125 72.718125 
" clip-path="url(#p3ec5dc899b)" style="fill: none; stroke: #b0b0b0; stroke-width: 0.8; stroke-linecap: square"/>
     </g>
     <g id="line2d_68">
      <g>
       <use xlink:href="#m32d2fed336" x="389.959647" y="72.718125" style="stroke: #000000; stroke-width: 0.8"/>
      </g>
     </g>
    </g>
    <g id="ytick_21">
     <g id="line2d_69">
      <path d="M 389.959647 113.038125 
L 487.003125 113.038125 
" clip-path="url(#p3ec5dc899b)" style="fill: none; stroke: #b0b0b0; stroke-width: 0.8; stroke-linecap: square"/>
     </g>
     <g id="line2d_70">
      <g>
       <use xlink:href="#m32d2fed336" x="389.959647" y="113.038125" style="stroke: #000000; stroke-width: 0.8"/>
      </g>
     </g>
    </g>
    <g id="ytick_22">
     <g id="line2d_71">
      <path d="M 389.959647 153.358125 
L 487.003125 153.358125 
" clip-path="url(#p3ec5dc899b)" style="fill: none; stroke: #b0b0b0; stroke-width: 0.8; stroke-linecap: square"/>
     </g>
     <g id="line2d_72">
      <g>
       <use xlink:href="#m32d2fed336" x="389.959647" y="153.358125" style="stroke: #000000; stroke-width: 0.8"/>
      </g>
     </g>
    </g>
    <g id="ytick_23">
     <g id="line2d_73">
      <path d="M 389.959647 193.678125 
L 487.003125 193.678125 
" clip-path="url(#p3ec5dc899b)" style="fill: none; stroke: #b0b0b0; stroke-width: 0.8; stroke-linecap: square"/>
     </g>
     <g id="line2d_74">
      <g>
       <use xlink:href="#m32d2fed336" x="389.959647" y="193.678125" style="stroke: #000000; stroke-width: 0.8"/>
      </g>
     </g>
    </g>
    <g id="ytick_24">
     <g id="line2d_75">
      <path d="M 389.959647 233.998125 
L 487.003125 233.998125 
" clip-path="url(#p3ec5dc899b)" style="fill: none; stroke: #b0b0b0; stroke-width: 0.8; stroke-linecap: square"/>
     </g>
     <g id="line2d_76">
      <g>
       <use xlink:href="#m32d2fed336" x="389.959647" y="233.998125" style="stroke: #000000; stroke-width: 0.8"/>
      </g>
     </g>
    </g>
   </g>
   <g id="line2d_77">
    <path d="M 398.380775 233.998125 
L 399.984799 229.966125 
L 401.588824 225.934125 
L 403.192848 221.902125 
L 404.796873 217.870125 
L 406.400897 213.838125 
L 408.004922 209.806125 
L 409.608946 205.774125 
L 411.21297 201.742125 
L 412.816995 197.710125 
L 414.421019 193.678125 
L 416.025044 189.646125 
L 417.629068 185.614125 
L 419.233093 181.582125 
L 420.837117 177.550125 
L 422.441142 173.518125 
L 424.045166 169.486125 
L 425.64919 165.454125 
L 427.253215 161.422125 
L 428.857239 157.390125 
L 430.461264 153.358125 
L 432.065288 149.326125 
L 433.669313 145.294125 
L 435.273337 141.262125 
L 436.877361 137.230125 
L 438.481386 133.198125 
L 440.08541 129.166125 
L 441.689435 125.134125 
L 443.293459 121.102125 
L 444.897484 117.070125 
L 446.501508 113.038125 
L 448.105532 109.006125 
L 449.709557 104.974125 
L 451.313581 100.942125 
L 452.917606 96.910125 
L 454.52163 92.878125 
L 456.125655 88.846125 
L 457.729679 84.814125 
L 459.333704 80.782125 
L 460.937728 76.750125 
L 462.541752 72.718125 
L 464.145777 68.686125 
L 465.749801 64.654125 
L 467.353826 60.622125 
L 468.95785 56.590125 
L 470.561875 52.558125 
L 472.165899 48.526125 
L 473.769923 44.494125 
L 475.373948 40.462125 
L 476.977972 36.430125 
L 478.581997 32.398125 
" clip-path="url(#p3ec5dc899b)" style="fill: none; stroke: #1f77b4; stroke-width: 1.5; stroke-linecap: square"/>
   </g>
   <g id="line2d_78">
    <path d="M 399.129061 233.998125 
L 399.129061 229.966125 
L 399.532118 225.934125 
L 400.336497 221.902125 
L 401.532476 217.870125 
L 403.09117 213.838125 
L 404.953223 209.806125 
L 407.026602 205.774125 
L 409.201117 201.742125 
L 411.375092 197.710125 
L 413.477816 193.678125 
L 415.475752 189.646125 
L 417.364746 185.614125 
L 419.157651 181.582125 
L 420.874099 177.550125 
L 422.534267 173.518125 
L 424.155879 169.486125 
L 425.753181 165.454125 
L 427.33692 161.422125 
L 428.914752 157.390125 
L 430.491796 153.358125 
L 432.071192 149.326125 
L 433.654605 145.294125 
L 435.242657 141.262125 
L 436.835279 137.230125 
L 438.431988 133.198125 
L 440.032097 129.166125 
L 441.634855 125.134125 
L 443.23955 121.102125 
L 444.84556 117.070125 
L 446.452378 113.038125 
L 448.059617 109.006125 
L 449.667002 104.974125 
L 451.274352 100.942125 
L 452.881561 96.910125 
L 454.488578 92.878125 
L 456.095391 88.846125 
L 457.702013 84.814125 
L 459.308471 80.782125 
L 460.914798 76.750125 
L 462.521025 72.718125 
L 464.127183 68.686125 
L 465.733295 64.654125 
L 467.339381 60.622125 
L 468.945456 56.590125 
L 470.551529 52.558125 
L 472.157606 48.526125 
L 473.763691 44.494125 
L 475.369784 40.462125 
L 476.975887 36.430125 
L 478.581997 32.398125 
" clip-path="url(#p3ec5dc899b)" style="fill: none; stroke-dasharray: 5.55,2.4; stroke-dashoffset: 0; stroke: #ff7f0e; stroke-width: 1.5"/>
   </g>
   <g id="LineCollection_4">
    <path d="M 394.370714 64.483762 
L 482.592058 64.483762 
" clip-path="url(#p3ec5dc899b)" style="fill: none; stroke-dasharray: 5.55,2.4; stroke-dashoffset: 0; stroke: #1f77b4; stroke-width: 1.5"/>
   </g>
   <g id="patch_19">
    <path d="M 389.959647 244.078125 
L 389.959647 22.318125 
" style="fill: none; stroke: #000000; stroke-width: 0.8; stroke-linejoin: miter; stroke-linecap: square"/>
   </g>
   <g id="patch_20">
    <path d="M 487.003125 244.078125 
L 487.003125 22.318125 
" style="fill: none; stroke: #000000; stroke-width: 0.8; stroke-linejoin: miter; stroke-linecap: square"/>
   </g>
   <g id="patch_21">
    <path d="M 389.959647 244.078125 
L 487.003125 244.078125 
" style="fill: none; stroke: #000000; stroke-width: 0.8; stroke-linejoin: miter; stroke-linecap: square"/>
   </g>
   <g id="patch_22">
    <path d="M 389.959647 22.318125 
L 487.003125 22.318125 
" style="fill: none; stroke: #000000; stroke-width: 0.8; stroke-linejoin: miter; stroke-linecap: square"/>
   </g>
   <g id="text_23">
    <!-- Phase -->
    <g transform="translate(420.566698 16.318125) scale(0.12 -0.12)">
     <defs>
      <path id="DejaVuSans-50" d="M 1259 4147 
L 1259 2394 
L 2053 2394 
Q 2494 2394 2734 2622 
Q 2975 2850 2975 3272 
Q 2975 3691 2734 3919 
Q 2494 4147 2053 4147 
L 1259 4147 
z
M 628 4666 
L 2053 4666 
Q 2838 4666 3239 4311 
Q 3641 3956 3641 3272 
Q 3641 2581 3239 2228 
Q 2838 1875 2053 1875 
L 1259 1875 
L 1259 0 
L 628 0 
L 628 4666 
z
" transform="scale(0.015625)"/>
      <path id="DejaVuSans-68" d="M 3513 2113 
L 3513 0 
L 2938 0 
L 2938 2094 
Q 2938 2591 2744 2837 
Q 2550 3084 2163 3084 
Q 1697 3084 1428 2787 
Q 1159 2491 1159 1978 
L 1159 0 
L 581 0 
L 581 4863 
L 1159 4863 
L 1159 2956 
Q 1366 3272 1645 3428 
Q 1925 3584 2291 3584 
Q 2894 3584 3203 3211 
Q 3513 2838 3513 2113 
z
" transform="scale(0.015625)"/>
     </defs>
     <use xlink:href="#DejaVuSans-50"/>
     <use xlink:href="#DejaVuSans-68" transform="translate(60.302734 0)"/>
     <use xlink:href="#DejaVuSans-61" transform="translate(123.681641 0)"/>
     <use xlink:href="#DejaVuSans-73" transform="translate(184.960938 0)"/>
     <use xlink:href="#DejaVuSans-65" transform="translate(237.060547 0)"/>
    </g>
   </g>
  </g>
 </g>
 <defs>
  <clipPath id="p6562b0a358">
   <rect x="40.603125" y="22.318125" width="97.043478" height="221.76"/>
  </clipPath>
  <clipPath id="p92787ac0d5">
   <rect x="157.055299" y="22.318125" width="97.043478" height="221.76"/>
  </clipPath>
  <clipPath id="p8835fe87fd">
   <rect x="273.507473" y="22.318125" width="97.043478" height="221.76"/>
  </clipPath>
  <clipPath id="p3ec5dc899b">
   <rect x="389.959647" y="22.318125" width="97.043478" height="221.76"/>
  </clipPath>
 </defs>
</svg>
